<?xml version="1.0" encoding="UTF-8"?>
<svg id="Layer_1" data-name="Layer 1" xmlns="http://www.w3.org/2000/svg" viewBox="0 0 2076.26 2493.52">
  <defs>
    <style>
      .cls-1 {
        fill: #226fb4;
      }
    </style>
  </defs>
  <path class="cls-1" d="M582.04,897.29h38.46s.04,0,.06,0c3.98-.57,7.5-2.86,9.92-6.06,11.06-14.64,18.71-30.76,23.01-48.37,2.08-8.52,3.45-17.1,4.14-25.7.88-11.38.59-22.84-.93-34.41-2.67-20.3-9.08-39.93-19.23-58.9-10.15-18.97-23.51-35.79-40.07-50.49-16.56-14.69-36.33-26.45-59.3-35.26-22.97-8.81-48.88-13.22-77.73-13.22-32.06,0-61.84,3.47-89.35,10.42-27.51,6.95-51.6,14.85-72.52,23.24-9.83,3.94-19.8,7.48-40.1,20.3v87.08c16.03-24.57,33.16-46.48,52.93-65.71,17.1-16.56,37.66-31.65,61.71-45.28,24.04-13.62,50.75-20.43,80.14-20.43,22.44,0,42.07,5.21,58.9,15.63,16.83,10.42,30.72,23.51,41.67,39.27,10.95,15.76,18.97,33.39,24.04,52.89,5.08,19.5,7.08,38.47,6.01,56.9-.53,9.43-1.98,18.35-4.27,26.79-2.16,8.07-5.16,15.71-8.95,22.89-7.75,14.69-19.1,25.51-34.06,32.46-19.77,9.08-37.67,13.62-53.69,13.62-20.84,0-38.2-6.81-52.09-20.44-9.91-9.72-19.02-20.89-27.27-33.47-4.89,8.57-7.32,19.58-7.32,33.02,0,10.68,1.07,22.71,3.21,36.06,1.84,11.49,3.87,23.37,6.12,35.63.35,2,.72,4.01,1.1,6.04,2.67,14.42,5.08,28.98,7.21,43.67,2.14,14.69,3.21,28.98,3.21,42.87,0,10.15-.67,19.9-2,29.25-.85,5.95-2.29,11.62-4.33,17.03-2.36,6.27-6.07,12.13-11.08,17.11-1.43,1.42-2.88,2.68-4.15,3.43l14.09-4.52c1.24-.4,2.49-.83,3.7-1.3,20.38-7.85,34.6-16.83,42.64-26.95,8.28-10.42,12.42-21.5,12.42-33.26,0-10.68-2.4-21.37-7.21-32.05-4.81-10.68-10.42-21.24-16.83-31.65-6.41-10.42-12.82-20.43-19.23-30.05-.63-.94-1.25-1.88-1.85-2.8-3.12-4.81-1.73-11.23,3.1-14.32l.09-.06c12.02-7.75,24.44-13.09,37.26-16.03,12.82-2.94,24.58-4.41,35.26-4.41,29.92,0,55.56,6.68,76.93,20.03,10.94,6.84,20.6,14.5,29.01,23,6.21,6.28,10.79,14.01,13.29,22.49.01.04.03.09.04.13,4.27,14.42,6.41,29.38,6.41,44.88,0,19.23-3.21,39-9.62,59.3-6.41,20.3-16.16,40.07-29.25,59.3-7.99,11.73-17.26,23.21-27.86,34.43-3.91,4.19-8.08,8.32-12.37,12.44-15.34-7.96-31.78-14.72-49.34-20.27-35.53-11.22-73.59-16.83-114.2-16.83s-78.67,6.68-114.2,20.03c-35.53,13.36-66.51,31.65-92.96,54.89-4.64,4.08-9.05,8.33-13.36,12.65-8.18-7.27-15.43-15.13-21.68-23.63-20.84-27.25-31.25-57.97-31.25-92.16,0-22.44,4.54-45.14,13.62-68.12,9.08-22.97,22.71-45.01,40.87-66.11,18.16-21.1,40.74-40.87,67.72-59.3,23.27-15.89,49.63-29.92,79.07-42.02,4.67-1.95,9.46-3.82,14.29-5.66h-177.9c-9.62,22.44-18.16,45.94-25.64,70.52-5.88,20.84-11.49,44.48-16.83,70.92-5.34,26.45-8.01,53.56-8.01,81.34,0,39,7.75,73.73,23.24,104.18,8.19,16.1,17.96,30.86,29.22,44.35-14.29,16.64-26.39,34.89-36.25,54.78-7.61,15.36-13.38,31.23-17.2,47.55-4.03,16.88-6.04,34.3-6.04,52.22,0,38.47,9.08,74.26,27.25,107.38,18.16,33.12,42.47,61.71,72.92,85.75h-38.47s-.04,0-.06,0c-3.98.57-7.5,2.86-9.92,6.06-11.06,14.64-18.71,30.76-23.01,48.37-2.08,8.52-3.45,17.1-4.14,25.7-.88,11.38-.59,22.84.93,34.41,2.67,20.3,9.08,39.93,19.23,58.9,10.15,18.97,23.51,35.79,40.07,50.49,16.56,14.69,36.33,26.45,59.3,35.26,22.97,8.82,48.88,13.22,77.73,13.22,32.06,0,61.84-3.47,89.35-10.42,27.51-6.95,51.6-14.85,72.52-23.24,9.83-3.94,19.8-7.48,40.11-20.3v-87.08c-16.03,24.58-33.16,46.48-52.93,65.71-17.1,16.56-37.66,31.65-61.71,45.28-24.04,13.62-50.75,20.43-80.14,20.43-22.44,0-42.07-5.21-58.9-15.63-16.83-10.42-30.72-23.51-41.67-39.27-10.95-15.76-18.97-33.39-24.04-52.89-5.07-19.5-7.08-38.47-6.01-56.9.53-9.43,1.98-18.35,4.27-26.79,2.16-8.07,5.16-15.71,8.95-22.89,7.75-14.69,19.1-25.51,34.06-32.46,19.77-9.08,37.67-13.62,53.69-13.62,20.84,0,38.2,6.81,52.09,20.43,9.91,9.72,19.02,20.89,27.27,33.47,4.89-8.57,7.32-19.58,7.32-33.02,0-10.68-1.07-22.71-3.21-36.06-1.84-11.49-3.87-23.37-6.12-35.63-.35-2-.72-4.01-1.1-6.04-2.67-14.42-5.08-28.98-7.21-43.67-2.14-14.69-3.21-28.98-3.21-42.87,0-10.15.67-19.9,2-29.25.85-5.95,2.29-11.62,4.33-17.03,2.36-6.27,6.07-12.13,11.08-17.11,1.43-1.42,2.88-2.68,4.15-3.43l-14.09,4.52c-1.24.4-2.49.83-3.7,1.3-20.38,7.85-34.6,16.83-42.64,26.95-8.28,10.42-12.42,21.5-12.42,33.26,0,10.68,2.4,21.37,7.21,32.05,4.81,10.68,10.42,21.24,16.83,31.65,6.41,10.42,12.82,20.43,19.23,30.05.63.94,1.25,1.88,1.85,2.8,3.12,4.81,1.73,11.23-3.1,14.32l-.09.06c-12.02,7.75-24.44,13.09-37.26,16.03-12.82,2.94-24.58,4.41-35.26,4.41-29.92,0-55.56-6.68-76.93-20.03-10.94-6.84-20.6-14.5-29.01-23-6.21-6.28-10.79-14.01-13.29-22.49-.01-.04-.03-.09-.04-.13-4.27-14.42-6.41-29.38-6.41-44.88,0-19.23,3.21-39,9.62-59.3,6.41-20.3,16.16-40.07,29.25-59.3,7.99-11.73,17.26-23.21,27.86-34.43,3.91-4.19,8.08-8.32,12.37-12.44,15.34,7.96,31.78,14.72,49.34,20.27,35.53,11.22,73.59,16.83,114.19,16.83s78.67-6.68,114.2-20.03c35.53-13.36,66.51-31.65,92.96-54.89,4.64-4.08,9.05-8.33,13.36-12.65,8.18,7.27,15.43,15.13,21.68,23.63,20.84,27.25,31.25,57.97,31.25,92.16,0,22.44-4.54,45.14-13.62,68.12-9.08,22.97-22.71,45.01-40.87,66.11-18.16,21.1-40.74,40.87-67.72,59.3-23.27,15.89-49.63,29.92-79.07,42.02-4.67,1.95-9.46,3.82-14.29,5.66h177.9c9.62-22.44,18.16-45.94,25.64-70.52,5.88-20.84,11.49-44.48,16.83-70.92,5.34-26.45,8.01-53.56,8.01-81.34,0-39-7.75-73.73-23.24-104.18-8.19-16.1-17.96-30.86-29.21-44.35,14.29-16.64,26.39-34.89,36.25-54.78,7.61-15.36,13.38-31.23,17.2-47.55,4.03-16.88,6.04-34.3,6.04-52.22,0-38.47-9.08-74.26-27.25-107.38-18.16-33.12-42.47-61.71-72.92-85.75ZM465.05,1241.07c-36.33,19.23-71.06,31.79-104.18,37.66-33.12,5.88-63.84,6.81-92.16,2.8-2.7-.38-5.35-.84-8-1.3,13.73-9.88,28.72-19.16,45.04-27.8,36.33-19.23,71.06-31.79,104.18-37.66,33.12-5.88,63.84-6.81,92.16-2.8,2.7.38,5.35.84,8,1.3-13.73,9.88-28.73,19.16-45.04,27.8Z"/>
  <path class="cls-1" d="M596.07,160.74c-26.44-21.1-57.43-37.26-92.96-48.48-35.53-11.22-73.59-16.83-114.2-16.83s-78.67,6.68-114.19,20.03c-35.53,13.36-66.51,31.65-92.96,54.89-26.44,23.24-47.41,50.49-62.91,81.74-7.61,15.36-13.38,31.23-17.2,47.55-4.03,16.88-6.04,34.3-6.04,52.22,0,38.47,9.08,74.26,27.25,107.38,18.16,33.12,42.47,61.71,72.92,85.75h-38.47s-.04,0-.06,0c-3.98.57-7.5,2.86-9.92,6.06-11.06,14.64-18.71,30.76-23,48.37-2.08,8.52-3.45,17.1-4.14,25.7-.88,11.38-.59,22.84.94,34.41,2.67,20.3,9.08,39.93,19.23,58.9,10.15,18.97,23.51,35.79,40.07,50.49,16.56,14.69,36.33,26.45,59.3,35.26,22.97,8.81,48.88,13.22,77.73,13.22,32.06,0,61.84-3.47,89.35-10.42s51.6-14.85,72.52-23.24c9.83-3.94,19.8-7.48,40.11-20.3v-87.08c-16.03,24.57-33.16,46.48-52.93,65.71-17.1,16.56-37.66,31.65-61.71,45.28-24.04,13.62-50.75,20.43-80.14,20.43-22.44,0-42.07-5.21-58.9-15.63-16.83-10.42-30.72-23.51-41.67-39.27-10.95-15.76-18.97-33.39-24.04-52.89-5.08-19.5-7.08-38.47-6.01-56.9.53-9.43,1.98-18.35,4.27-26.79,2.16-8.07,5.16-15.71,8.95-22.89,7.75-14.69,19.1-25.51,34.06-32.46,19.77-9.08,37.67-13.62,53.69-13.62,20.84,0,38.2,6.81,52.09,20.44,9.91,9.72,19.02,20.89,27.27,33.47,4.89-8.57,7.32-19.58,7.32-33.02,0-10.68-1.07-22.71-3.21-36.06-1.84-11.49-3.87-23.37-6.12-35.63-.35-2-.72-4.01-1.1-6.04-2.67-14.42-5.08-28.98-7.21-43.67-2.14-14.69-3.21-28.98-3.21-42.87,0-10.15.67-19.9,2-29.25.85-5.95,2.29-11.62,4.33-17.03,2.36-6.27,6.07-12.13,11.08-17.11,1.43-1.42,2.88-2.68,4.15-3.43l-14.09,4.52c-1.24.4-2.49.83-3.7,1.3-20.38,7.85-34.6,16.83-42.64,26.95-8.28,10.42-12.42,21.5-12.42,33.26,0,10.68,2.4,21.37,7.21,32.05,4.81,10.68,10.42,21.24,16.83,31.65,6.41,10.42,12.82,20.43,19.23,30.05.63.94,1.25,1.88,1.85,2.8,3.12,4.81,1.73,11.23-3.1,14.32l-.09.06c-12.02,7.75-24.44,13.09-37.26,16.03-12.82,2.94-24.58,4.41-35.26,4.41-29.92,0-55.56-6.68-76.93-20.03-10.94-6.84-20.6-14.5-29.01-23-6.21-6.28-10.79-14.01-13.29-22.49-.01-.04-.03-.09-.04-.13-4.27-14.42-6.41-29.38-6.41-44.88,0-19.23,3.21-39,9.62-59.3,6.41-20.3,16.16-40.07,29.25-59.3,7.99-11.73,17.26-23.21,27.86-34.43,6.28-6.73,13.06-13.36,20.33-19.9.48-.45.99-.91,1.5-1.36,20.03-17.9,43.67-34.06,70.92-48.48,36.33-19.23,71.06-31.79,104.18-37.66,33.12-5.88,63.84-6.81,92.16-2.8,28.31,4.01,53.56,12.29,75.73,24.84,22.17,12.55,39.93,27.91,53.29,46.08,20.84,27.25,31.25,57.97,31.25,92.16,0,22.44-4.54,45.14-13.62,68.12-9.08,22.97-22.71,45.01-40.87,66.11-18.16,21.1-40.74,40.87-67.72,59.3-23.27,15.89-49.63,29.92-79.07,42.02-4.67,1.95-9.46,3.82-14.29,5.66h177.9c9.62-22.44,18.16-45.94,25.64-70.52,5.88-20.84,11.49-44.48,16.83-70.92,5.34-26.45,8.01-53.56,8.01-81.34,0-39-7.75-73.73-23.24-104.18-15.49-30.45-36.46-56.23-62.91-77.33Z"/>
  <path class="cls-1" d="M575.01,1948.52h38.47s.04,0,.06,0c3.98-.57,7.5-2.86,9.92-6.06,11.06-14.64,18.71-30.76,23.01-48.37,2.08-8.52,3.45-17.1,4.14-25.7.88-11.38.59-22.84-.93-34.41-2.67-20.3-9.08-39.93-19.23-58.9-10.15-18.97-23.51-35.79-40.07-50.49-16.56-14.69-36.33-26.45-59.3-35.26-22.97-8.81-48.88-13.22-77.73-13.22-32.06,0-61.84,3.47-89.35,10.42-27.51,6.95-51.6,14.85-72.52,23.24-9.83,3.94-19.8,7.48-40.11,20.3v87.08c16.03-24.58,33.16-46.48,52.93-65.71,17.1-16.56,37.66-31.65,61.71-45.28,24.04-13.62,50.75-20.43,80.14-20.43,22.44,0,42.07,5.21,58.9,15.63,16.83,10.42,30.72,23.51,41.67,39.27,10.95,15.76,18.97,33.39,24.04,52.89,5.07,19.5,7.08,38.47,6.01,56.9-.53,9.43-1.98,18.35-4.27,26.79-2.16,8.07-5.16,15.71-8.95,22.89-7.75,14.69-19.1,25.51-34.06,32.46-19.77,9.08-37.67,13.62-53.69,13.62-20.84,0-38.2-6.81-52.09-20.43-9.91-9.72-19.02-20.89-27.27-33.47-4.89,8.57-7.32,19.58-7.32,33.02,0,10.68,1.07,22.71,3.21,36.06,1.84,11.49,3.87,23.37,6.12,35.63.35,2,.72,4.01,1.1,6.04,2.67,14.42,5.08,28.98,7.21,43.67,2.14,14.69,3.21,28.98,3.21,42.87,0,10.15-.67,19.9-2,29.25-.85,5.95-2.29,11.62-4.33,17.03-2.36,6.27-6.07,12.13-11.08,17.11-1.43,1.42-2.88,2.68-4.15,3.43l14.09-4.52c1.24-.4,2.49-.83,3.7-1.3,20.38-7.85,34.6-16.83,42.64-26.95,8.28-10.42,12.42-21.5,12.42-33.26,0-10.68-2.4-21.37-7.21-32.05-4.81-10.68-10.42-21.24-16.83-31.65-6.41-10.42-12.82-20.43-19.23-30.05-.63-.94-1.25-1.88-1.85-2.8-3.12-4.81-1.73-11.23,3.1-14.32l.09-.06c12.02-7.75,24.44-13.09,37.26-16.03,12.82-2.94,24.58-4.41,35.26-4.41,29.92,0,55.56,6.68,76.93,20.03,10.94,6.84,20.6,14.5,29.01,23,6.21,6.28,10.79,14.01,13.29,22.49.01.04.03.09.04.13,4.27,14.42,6.41,29.38,6.41,44.88,0,19.23-3.21,39-9.62,59.3-6.41,20.3-16.16,40.07-29.25,59.3-7.99,11.73-17.26,23.21-27.86,34.43-6.28,6.73-13.06,13.36-20.33,19.9-.48.45-.99.91-1.5,1.36-20.03,17.9-43.67,34.06-70.92,48.48-36.33,19.23-71.06,31.79-104.18,37.66-33.12,5.88-63.84,6.81-92.16,2.8-28.31-4.01-53.56-12.29-75.73-24.84-22.17-12.55-39.93-27.91-53.29-46.08-20.84-27.25-31.25-57.97-31.25-92.16,0-22.44,4.54-45.14,13.62-68.12,9.08-22.97,22.71-45.01,40.87-66.11,18.16-21.1,40.74-40.87,67.72-59.3,23.27-15.89,49.63-29.92,79.07-42.02,4.67-1.95,9.46-3.82,14.29-5.66h-177.9c-9.62,22.44-18.16,45.95-25.64,70.52-5.88,20.84-11.49,44.48-16.83,70.92-5.34,26.45-8.01,53.56-8.01,81.34,0,39,7.75,73.73,23.24,104.18,15.49,30.45,36.46,56.23,62.91,77.33,26.44,21.1,57.43,37.26,92.96,48.48,35.53,11.22,73.59,16.83,114.2,16.83s78.67-6.68,114.2-20.03c35.53-13.36,66.51-31.65,92.96-54.89,26.44-23.24,47.41-50.49,62.91-81.74,7.61-15.36,13.38-31.23,17.2-47.55,4.03-16.88,6.04-34.3,6.04-52.22,0-38.47-9.08-74.26-27.25-107.38-18.16-33.12-42.47-61.71-72.92-85.75Z"/>
  <path class="cls-1" d="M1234.77,897.29h38.47s.04,0,.06,0c3.98-.57,7.5-2.86,9.92-6.06,11.06-14.64,18.71-30.76,23.01-48.37,2.08-8.52,3.45-17.1,4.14-25.7.88-11.38.59-22.84-.93-34.41-2.67-20.3-9.08-39.93-19.23-58.9-10.15-18.97-23.51-35.79-40.07-50.49-16.56-14.69-36.33-26.45-59.3-35.26-22.97-8.81-48.88-13.22-77.73-13.22-32.06,0-61.84,3.47-89.35,10.42-27.51,6.95-51.6,14.85-72.52,23.24-9.83,3.94-19.8,7.48-40.11,20.3v87.08c16.03-24.57,33.16-46.48,52.93-65.71,17.1-16.56,37.66-31.65,61.71-45.28,24.04-13.62,50.75-20.43,80.14-20.43,22.44,0,42.07,5.21,58.9,15.63,16.83,10.42,30.72,23.51,41.67,39.27,10.95,15.76,18.97,33.39,24.04,52.89,5.08,19.5,7.08,38.47,6.01,56.9-.53,9.43-1.98,18.35-4.27,26.79-2.16,8.07-5.16,15.71-8.95,22.89-7.75,14.69-19.1,25.51-34.06,32.46-19.77,9.08-37.67,13.62-53.69,13.62-20.84,0-38.2-6.81-52.09-20.44-9.91-9.72-19.02-20.89-27.27-33.47-4.89,8.57-7.32,19.58-7.32,33.02,0,10.68,1.07,22.71,3.21,36.06,1.84,11.49,3.87,23.37,6.12,35.63.35,2,.72,4.01,1.1,6.04,2.67,14.42,5.08,28.98,7.21,43.67,2.14,14.69,3.21,28.98,3.21,42.87,0,10.15-.67,19.9-2,29.25-.85,5.95-2.29,11.62-4.33,17.03-2.36,6.27-6.07,12.13-11.08,17.11-1.43,1.42-2.88,2.68-4.15,3.43l14.09-4.52c1.24-.4,2.49-.83,3.7-1.3,20.38-7.85,34.6-16.83,42.64-26.95,8.28-10.42,12.42-21.5,12.42-33.26,0-10.68-2.4-21.37-7.21-32.05-4.81-10.68-10.42-21.24-16.83-31.65-6.41-10.42-12.82-20.43-19.23-30.05-.63-.94-1.25-1.88-1.85-2.8-3.12-4.81-1.73-11.23,3.1-14.32l.09-.06c12.02-7.75,24.44-13.09,37.26-16.03,12.82-2.94,24.58-4.41,35.26-4.41,29.92,0,55.56,6.68,76.93,20.03,10.94,6.84,20.6,14.5,29.01,23,6.21,6.28,10.79,14.01,13.29,22.49.01.04.03.09.04.13,4.27,14.42,6.41,29.38,6.41,44.88,0,19.23-3.21,39-9.62,59.3-6.41,20.3-16.16,40.07-29.25,59.3-7.99,11.73-17.26,23.21-27.86,34.43-3.91,4.19-8.08,8.32-12.37,12.44-15.34-7.96-31.78-14.72-49.34-20.27-35.53-11.22-73.59-16.83-114.2-16.83s-78.67,6.68-114.2,20.03c-35.53,13.36-66.51,31.65-92.96,54.89-4.64,4.08-9.05,8.33-13.36,12.65-8.18-7.27-15.43-15.13-21.68-23.63-20.84-27.25-31.25-57.97-31.25-92.16,0-22.44,4.54-45.14,13.62-68.12,9.08-22.97,22.71-45.01,40.87-66.11,18.16-21.1,40.74-40.87,67.72-59.3,23.27-15.89,49.63-29.92,79.07-42.02,4.67-1.95,9.46-3.82,14.29-5.66h-177.9c-9.62,22.44-18.16,45.94-25.64,70.52-5.88,20.84-11.49,44.48-16.83,70.92-5.34,26.45-8.01,53.56-8.01,81.34,0,39,7.75,73.73,23.24,104.18,8.19,16.1,17.96,30.86,29.22,44.35-14.29,16.64-26.39,34.89-36.25,54.78-7.61,15.36-13.38,31.23-17.2,47.55-4.03,16.88-6.04,34.3-6.04,52.22,0,38.47,9.08,74.26,27.25,107.38,18.16,33.12,42.47,61.71,72.92,85.75h-38.47s-.04,0-.06,0c-3.98.57-7.5,2.86-9.92,6.06-11.06,14.64-18.71,30.76-23.01,48.37-2.08,8.52-3.45,17.1-4.14,25.7-.88,11.38-.59,22.84.93,34.41,2.67,20.3,9.08,39.93,19.23,58.9,10.15,18.97,23.51,35.79,40.07,50.49,16.56,14.69,36.33,26.45,59.3,35.26,22.97,8.82,48.88,13.22,77.73,13.22,32.06,0,61.84-3.47,89.35-10.42,27.51-6.95,51.6-14.85,72.52-23.24,9.83-3.94,19.8-7.48,40.11-20.3v-87.08c-16.03,24.58-33.16,46.48-52.93,65.71-17.1,16.56-37.66,31.65-61.71,45.28-24.04,13.62-50.75,20.43-80.14,20.43-22.44,0-42.07-5.21-58.9-15.63-16.83-10.42-30.72-23.51-41.67-39.27-10.95-15.76-18.97-33.39-24.04-52.89-5.08-19.5-7.08-38.47-6.01-56.9.53-9.43,1.98-18.35,4.27-26.79,2.16-8.07,5.16-15.71,8.95-22.89,7.75-14.69,19.1-25.51,34.06-32.46,19.77-9.08,37.67-13.62,53.69-13.62,20.84,0,38.2,6.81,52.09,20.43,9.91,9.72,19.02,20.89,27.27,33.47,4.89-8.57,7.32-19.58,7.32-33.02,0-10.68-1.07-22.71-3.21-36.06-1.84-11.49-3.87-23.37-6.12-35.63-.35-2-.72-4.01-1.1-6.04-2.67-14.42-5.08-28.98-7.21-43.67-2.14-14.69-3.21-28.98-3.21-42.87,0-10.15.67-19.9,2-29.25.85-5.95,2.29-11.62,4.33-17.03,2.36-6.27,6.07-12.13,11.08-17.11,1.43-1.42,2.88-2.68,4.15-3.43l-14.09,4.52c-1.24.4-2.49.83-3.7,1.3-20.38,7.85-34.6,16.83-42.64,26.95-8.28,10.42-12.42,21.5-12.42,33.26,0,10.68,2.4,21.37,7.21,32.05,4.81,10.68,10.42,21.24,16.83,31.65,6.41,10.42,12.82,20.43,19.23,30.05.63.94,1.25,1.88,1.85,2.8,3.12,4.81,1.73,11.23-3.1,14.32l-.09.06c-12.02,7.75-24.44,13.09-37.26,16.03-12.82,2.94-24.58,4.41-35.26,4.41-29.92,0-55.56-6.68-76.93-20.03-10.94-6.84-20.6-14.5-29.01-23-6.21-6.28-10.79-14.01-13.29-22.49-.01-.04-.03-.09-.04-.13-4.27-14.42-6.41-29.38-6.41-44.88,0-19.23,3.21-39,9.62-59.3,6.41-20.3,16.16-40.07,29.25-59.3,7.99-11.73,17.26-23.21,27.86-34.43,3.91-4.19,8.08-8.32,12.37-12.44,15.34,7.96,31.78,14.72,49.34,20.27,35.53,11.22,73.59,16.83,114.2,16.83s78.67-6.68,114.2-20.03c35.53-13.36,66.51-31.65,92.96-54.89,4.64-4.08,9.05-8.33,13.36-12.65,8.18,7.27,15.43,15.13,21.68,23.63,20.84,27.25,31.25,57.97,31.25,92.16,0,22.44-4.54,45.14-13.62,68.12-9.08,22.97-22.71,45.01-40.87,66.11-18.16,21.1-40.74,40.87-67.72,59.3-23.27,15.89-49.63,29.92-79.07,42.02-4.67,1.95-9.46,3.82-14.29,5.66h177.9c9.62-22.44,18.16-45.94,25.64-70.52,5.88-20.84,11.49-44.48,16.83-70.92,5.34-26.45,8.01-53.56,8.01-81.34,0-39-7.75-73.73-23.24-104.18-8.19-16.1-17.96-30.86-29.21-44.35,14.29-16.64,26.39-34.89,36.25-54.78,7.61-15.36,13.38-31.23,17.2-47.55,4.03-16.88,6.04-34.3,6.04-52.22,0-38.47-9.08-74.26-27.25-107.38-18.16-33.12-42.47-61.71-72.92-85.75ZM1117.77,1241.07c-36.33,19.23-71.06,31.79-104.18,37.66-33.12,5.88-63.84,6.81-92.16,2.8-2.7-.38-5.35-.84-8-1.3,13.73-9.88,28.72-19.16,45.04-27.8,36.33-19.23,71.06-31.79,104.18-37.66,33.12-5.88,63.84-6.81,92.16-2.8,2.7.38,5.35.84,8,1.3-13.73,9.88-28.73,19.16-45.04,27.8Z"/>
  <path class="cls-1" d="M1248.8,160.74c-26.44-21.1-57.43-37.26-92.96-48.48s-73.59-16.83-114.2-16.83-78.67,6.68-114.2,20.03c-35.53,13.36-66.51,31.65-92.96,54.89-26.44,23.24-47.41,50.49-62.91,81.74-7.61,15.36-13.38,31.23-17.2,47.55-4.03,16.88-6.04,34.3-6.04,52.22,0,38.47,9.08,74.26,27.25,107.38,18.16,33.12,42.47,61.71,72.92,85.75h-38.47s-.04,0-.06,0c-3.98.57-7.5,2.86-9.92,6.06-11.06,14.64-18.71,30.76-23,48.37-2.08,8.52-3.45,17.1-4.14,25.7-.88,11.38-.59,22.84.94,34.41,2.67,20.3,9.08,39.93,19.23,58.9,10.15,18.97,23.51,35.79,40.07,50.49,16.56,14.69,36.33,26.45,59.3,35.26,22.97,8.81,48.88,13.22,77.73,13.22,32.06,0,61.84-3.47,89.35-10.42s51.6-14.85,72.52-23.24c9.83-3.94,19.8-7.48,40.11-20.3v-87.08c-16.03,24.57-33.16,46.48-52.93,65.71-17.1,16.56-37.66,31.65-61.71,45.28-24.04,13.62-50.75,20.43-80.14,20.43-22.44,0-42.07-5.21-58.9-15.63-16.83-10.42-30.72-23.51-41.67-39.27-10.95-15.76-18.97-33.39-24.04-52.89-5.08-19.5-7.08-38.47-6.01-56.9.53-9.43,1.98-18.35,4.27-26.79,2.16-8.07,5.16-15.71,8.95-22.89,7.75-14.69,19.1-25.51,34.06-32.46,19.77-9.08,37.67-13.62,53.69-13.62,20.83,0,38.2,6.81,52.09,20.44,9.91,9.72,19.02,20.89,27.27,33.47,4.89-8.57,7.32-19.58,7.32-33.02,0-10.68-1.07-22.71-3.21-36.06-1.84-11.49-3.87-23.37-6.12-35.63-.35-2-.72-4.01-1.1-6.04-2.67-14.42-5.08-28.98-7.21-43.67-2.14-14.69-3.21-28.98-3.21-42.87,0-10.15.67-19.9,2-29.25.85-5.95,2.29-11.62,4.33-17.03,2.36-6.27,6.07-12.13,11.08-17.11,1.43-1.42,2.88-2.68,4.15-3.43l-14.09,4.52c-1.24.4-2.49.83-3.7,1.3-20.38,7.85-34.6,16.83-42.64,26.95-8.28,10.42-12.42,21.5-12.42,33.26,0,10.68,2.4,21.37,7.21,32.05,4.81,10.68,10.42,21.24,16.83,31.65,6.41,10.42,12.82,20.43,19.23,30.05.63.94,1.25,1.88,1.85,2.8,3.12,4.81,1.73,11.23-3.1,14.32l-.09.06c-12.02,7.75-24.44,13.09-37.26,16.03-12.82,2.94-24.58,4.41-35.26,4.41-29.92,0-55.56-6.68-76.93-20.03-10.94-6.84-20.6-14.5-29.01-23-6.21-6.28-10.79-14.01-13.29-22.49-.01-.04-.03-.09-.04-.13-4.27-14.42-6.41-29.38-6.41-44.88,0-19.23,3.21-39,9.62-59.3,6.41-20.3,16.16-40.07,29.25-59.3,7.99-11.73,17.26-23.21,27.86-34.43,6.28-6.73,13.06-13.36,20.33-19.9.48-.45.99-.91,1.5-1.36,20.03-17.9,43.67-34.06,70.92-48.48,36.33-19.23,71.05-31.79,104.18-37.66,33.12-5.88,63.84-6.81,92.16-2.8,28.31,4.01,53.56,12.29,75.73,24.84,22.17,12.55,39.93,27.91,53.29,46.08,20.84,27.25,31.25,57.97,31.25,92.16,0,22.44-4.54,45.14-13.62,68.12-9.08,22.97-22.71,45.01-40.87,66.11-18.16,21.1-40.74,40.87-67.72,59.3-23.27,15.89-49.63,29.92-79.07,42.02-4.67,1.95-9.46,3.82-14.29,5.66h177.9c9.62-22.44,18.16-45.94,25.64-70.52,5.88-20.84,11.49-44.48,16.83-70.92,5.34-26.45,8.01-53.56,8.01-81.34,0-39-7.75-73.73-23.24-104.18-15.49-30.45-36.46-56.23-62.91-77.33Z"/>
  <path class="cls-1" d="M1227.74,1948.52h38.47s.04,0,.06,0c3.98-.57,7.5-2.86,9.92-6.06,11.06-14.64,18.71-30.76,23.01-48.37,2.08-8.52,3.45-17.1,4.14-25.7.88-11.38.59-22.84-.93-34.41-2.67-20.3-9.08-39.93-19.23-58.9-10.15-18.97-23.51-35.79-40.07-50.49-16.56-14.69-36.33-26.45-59.3-35.26-22.97-8.81-48.88-13.22-77.73-13.22-32.06,0-61.84,3.47-89.35,10.42-27.51,6.95-51.6,14.85-72.52,23.24-9.83,3.94-19.8,7.48-40.11,20.3v87.08c16.03-24.58,33.16-46.48,52.93-65.71,17.1-16.56,37.66-31.65,61.71-45.28,24.04-13.62,50.75-20.43,80.14-20.43,22.44,0,42.07,5.21,58.9,15.63,16.83,10.42,30.72,23.51,41.67,39.27,10.95,15.76,18.97,33.39,24.04,52.89,5.07,19.5,7.08,38.47,6.01,56.9-.53,9.43-1.98,18.35-4.27,26.79-2.16,8.07-5.16,15.71-8.95,22.89-7.75,14.69-19.1,25.51-34.06,32.46-19.77,9.08-37.67,13.62-53.69,13.62-20.84,0-38.2-6.81-52.09-20.43-9.91-9.72-19.02-20.89-27.27-33.47-4.89,8.57-7.32,19.58-7.32,33.02,0,10.68,1.07,22.71,3.21,36.06,1.84,11.49,3.87,23.37,6.12,35.63.35,2,.72,4.01,1.1,6.04,2.67,14.42,5.08,28.98,7.21,43.67,2.14,14.69,3.21,28.98,3.21,42.87,0,10.15-.67,19.9-2,29.25-.85,5.95-2.29,11.62-4.33,17.03-2.36,6.27-6.07,12.13-11.08,17.11-1.43,1.42-2.88,2.68-4.15,3.43l14.09-4.52c1.24-.4,2.49-.83,3.7-1.3,20.38-7.85,34.6-16.83,42.64-26.95,8.28-10.42,12.42-21.5,12.42-33.26,0-10.68-2.4-21.37-7.21-32.05-4.81-10.68-10.42-21.24-16.83-31.65-6.41-10.42-12.82-20.43-19.23-30.05-.63-.94-1.25-1.88-1.85-2.8-3.12-4.81-1.73-11.23,3.1-14.32l.09-.06c12.02-7.75,24.44-13.09,37.26-16.03,12.82-2.94,24.58-4.41,35.26-4.41,29.92,0,55.56,6.68,76.93,20.03,10.94,6.84,20.6,14.5,29.01,23,6.21,6.28,10.79,14.01,13.29,22.49.01.04.03.09.04.13,4.27,14.42,6.41,29.38,6.41,44.88,0,19.23-3.21,39-9.62,59.3-6.41,20.3-16.16,40.07-29.25,59.3-7.99,11.73-17.26,23.21-27.86,34.43-6.28,6.73-13.06,13.36-20.33,19.9-.48.45-.99.91-1.5,1.36-20.03,17.9-43.67,34.06-70.92,48.48-36.33,19.23-71.06,31.79-104.18,37.66-33.12,5.88-63.84,6.81-92.16,2.8-28.31-4.01-53.56-12.29-75.73-24.84-22.17-12.55-39.93-27.91-53.29-46.08-20.84-27.25-31.25-57.97-31.25-92.16,0-22.44,4.54-45.14,13.62-68.12,9.08-22.97,22.71-45.01,40.87-66.11,18.16-21.1,40.74-40.87,67.72-59.3,23.27-15.89,49.63-29.92,79.07-42.02,4.67-1.95,9.46-3.82,14.29-5.66h-177.9c-9.62,22.44-18.16,45.95-25.64,70.52-5.88,20.84-11.49,44.48-16.83,70.92-5.34,26.45-8.01,53.56-8.01,81.34,0,39,7.75,73.73,23.24,104.18,15.49,30.45,36.46,56.23,62.91,77.33,26.44,21.1,57.43,37.26,92.96,48.48,35.53,11.22,73.59,16.83,114.2,16.83s78.67-6.68,114.2-20.03c35.53-13.36,66.51-31.65,92.96-54.89,26.44-23.24,47.41-50.49,62.91-81.74,7.61-15.36,13.38-31.23,17.2-47.55,4.03-16.88,6.04-34.3,6.04-52.22,0-38.47-9.08-74.26-27.25-107.38-18.16-33.12-42.47-61.71-72.92-85.75Z"/>
  <path class="cls-1" d="M1887.5,897.29h38.46s.04,0,.06,0c3.98-.57,7.5-2.86,9.92-6.06,11.06-14.64,18.71-30.76,23.01-48.37,2.08-8.52,3.45-17.1,4.14-25.7.88-11.38.59-22.84-.93-34.41-2.67-20.3-9.08-39.93-19.23-58.9-10.15-18.97-23.51-35.79-40.07-50.49-16.56-14.69-36.33-26.45-59.3-35.26-22.97-8.81-48.88-13.22-77.73-13.22-32.06,0-61.84,3.47-89.35,10.42-27.51,6.95-51.6,14.85-72.52,23.24-9.83,3.94-19.8,7.48-40.1,20.3v87.08c16.03-24.57,33.16-46.48,52.93-65.71,17.1-16.56,37.66-31.65,61.71-45.28,24.04-13.62,50.75-20.43,80.14-20.43,22.44,0,42.07,5.21,58.9,15.63,16.83,10.42,30.72,23.51,41.67,39.27,10.95,15.76,18.97,33.39,24.04,52.89,5.07,19.5,7.08,38.47,6.01,56.9-.53,9.43-1.98,18.35-4.27,26.79-2.16,8.07-5.16,15.71-8.95,22.89-7.75,14.69-19.1,25.51-34.06,32.46-19.77,9.08-37.67,13.62-53.69,13.62-20.84,0-38.2-6.81-52.09-20.44-9.91-9.72-19.02-20.89-27.27-33.47-4.89,8.57-7.32,19.58-7.32,33.02,0,10.68,1.07,22.71,3.21,36.06,1.84,11.49,3.87,23.37,6.12,35.63.35,2,.72,4.01,1.1,6.04,2.67,14.42,5.08,28.98,7.21,43.67,2.14,14.69,3.21,28.98,3.21,42.87,0,10.15-.67,19.9-2,29.25-.85,5.95-2.29,11.62-4.33,17.03-2.36,6.27-6.07,12.13-11.08,17.11-1.43,1.42-2.88,2.68-4.15,3.43l14.09-4.52c1.24-.4,2.49-.83,3.7-1.3,20.38-7.85,34.6-16.83,42.64-26.95,8.28-10.42,12.42-21.5,12.42-33.26,0-10.68-2.4-21.37-7.21-32.05-4.81-10.68-10.42-21.24-16.83-31.65-6.41-10.42-12.82-20.43-19.23-30.05-.63-.94-1.25-1.88-1.85-2.8-3.12-4.81-1.73-11.23,3.1-14.32l.09-.06c12.02-7.75,24.44-13.09,37.26-16.03,12.82-2.94,24.58-4.41,35.26-4.41,29.92,0,55.56,6.68,76.93,20.03,10.94,6.84,20.6,14.5,29.01,23,6.21,6.28,10.79,14.01,13.29,22.49.01.04.03.09.04.13,4.27,14.42,6.41,29.38,6.41,44.88,0,19.23-3.21,39-9.62,59.3-6.41,20.3-16.16,40.07-29.25,59.3-7.99,11.73-17.26,23.21-27.86,34.43-3.91,4.19-8.08,8.32-12.37,12.44-15.34-7.96-31.78-14.72-49.34-20.27-35.53-11.22-73.59-16.83-114.19-16.83s-78.67,6.68-114.2,20.03c-35.53,13.36-66.51,31.65-92.96,54.89-4.64,4.08-9.05,8.33-13.36,12.65-8.18-7.27-15.43-15.13-21.68-23.63-20.84-27.25-31.25-57.97-31.25-92.16,0-22.44,4.54-45.14,13.62-68.12,9.08-22.97,22.71-45.01,40.87-66.11,18.16-21.1,40.74-40.87,67.72-59.3,23.27-15.89,49.63-29.92,79.07-42.02,4.67-1.95,9.46-3.82,14.29-5.66h-177.9c-9.62,22.44-18.16,45.94-25.64,70.52-5.88,20.84-11.49,44.48-16.83,70.92-5.34,26.45-8.01,53.56-8.01,81.34,0,39,7.75,73.73,23.24,104.18,8.19,16.1,17.96,30.86,29.22,44.35-14.29,16.64-26.39,34.89-36.25,54.78-7.61,15.36-13.38,31.23-17.2,47.55-4.03,16.88-6.04,34.3-6.04,52.22,0,38.47,9.08,74.26,27.25,107.38,18.16,33.12,42.47,61.71,72.92,85.75h-38.46s-.04,0-.06,0c-3.98.57-7.5,2.86-9.92,6.06-11.06,14.64-18.71,30.76-23.01,48.37-2.08,8.52-3.45,17.1-4.14,25.7-.88,11.38-.59,22.84.93,34.41,2.67,20.3,9.08,39.93,19.23,58.9,10.15,18.97,23.51,35.79,40.07,50.49,16.56,14.69,36.33,26.45,59.3,35.26,22.97,8.82,48.88,13.22,77.73,13.22,32.06,0,61.84-3.47,89.35-10.42,27.51-6.95,51.6-14.85,72.52-23.24,9.83-3.94,19.8-7.48,40.1-20.3v-87.08c-16.03,24.58-33.16,46.48-52.93,65.71-17.1,16.56-37.66,31.65-61.71,45.28-24.04,13.62-50.75,20.43-80.14,20.43-22.44,0-42.07-5.21-58.9-15.63-16.83-10.42-30.72-23.51-41.67-39.27-10.95-15.76-18.97-33.39-24.04-52.89-5.08-19.5-7.08-38.47-6.01-56.9.53-9.43,1.98-18.35,4.27-26.79,2.16-8.07,5.16-15.71,8.95-22.89,7.75-14.69,19.1-25.51,34.06-32.46,19.77-9.08,37.67-13.62,53.69-13.62,20.84,0,38.2,6.81,52.09,20.43,9.91,9.72,19.02,20.89,27.27,33.47,4.89-8.57,7.32-19.58,7.32-33.02,0-10.68-1.07-22.71-3.21-36.06-1.84-11.49-3.87-23.37-6.12-35.63-.35-2-.72-4.01-1.1-6.04-2.67-14.42-5.08-28.98-7.21-43.67-2.14-14.69-3.21-28.98-3.21-42.87,0-10.15.67-19.9,2-29.25.85-5.95,2.29-11.62,4.33-17.03,2.36-6.27,6.07-12.13,11.08-17.11,1.43-1.42,2.88-2.68,4.15-3.43l-14.09,4.52c-1.24.4-2.49.83-3.7,1.3-20.38,7.85-34.6,16.83-42.64,26.95-8.28,10.42-12.42,21.5-12.42,33.26,0,10.68,2.4,21.37,7.21,32.05,4.81,10.68,10.42,21.24,16.83,31.65,6.41,10.42,12.82,20.43,19.23,30.05.63.94,1.25,1.88,1.85,2.8,3.12,4.81,1.73,11.23-3.1,14.32l-.09.06c-12.02,7.75-24.44,13.09-37.26,16.03-12.82,2.94-24.58,4.41-35.26,4.41-29.92,0-55.56-6.68-76.93-20.03-10.94-6.84-20.6-14.5-29.01-23-6.21-6.28-10.79-14.01-13.29-22.49l-.04-.13c-4.27-14.42-6.41-29.38-6.41-44.88,0-19.23,3.21-39,9.62-59.3,6.41-20.3,16.16-40.07,29.25-59.3,7.99-11.73,17.26-23.21,27.86-34.43,3.91-4.19,8.08-8.32,12.37-12.44,15.34,7.96,31.78,14.72,49.34,20.27,35.53,11.22,73.59,16.83,114.19,16.83s78.67-6.68,114.2-20.03,66.51-31.65,92.96-54.89c4.64-4.08,9.05-8.33,13.36-12.65,8.18,7.27,15.43,15.13,21.68,23.63,20.84,27.25,31.25,57.97,31.25,92.16,0,22.44-4.54,45.14-13.62,68.12-9.08,22.97-22.71,45.01-40.87,66.11-18.16,21.1-40.74,40.87-67.72,59.3-23.27,15.89-49.63,29.92-79.07,42.02-4.67,1.95-9.46,3.82-14.29,5.66h177.9c9.62-22.44,18.16-45.94,25.64-70.52,5.88-20.84,11.49-44.48,16.83-70.92,5.34-26.45,8.01-53.56,8.01-81.34,0-39-7.75-73.73-23.24-104.18-8.19-16.1-17.96-30.86-29.22-44.35,14.29-16.64,26.39-34.89,36.25-54.78,7.61-15.36,13.38-31.23,17.2-47.55,4.03-16.88,6.04-34.3,6.04-52.22,0-38.47-9.08-74.26-27.25-107.38-18.16-33.12-42.47-61.71-72.92-85.75ZM1770.5,1241.07c-36.33,19.23-71.06,31.79-104.18,37.66-33.12,5.88-63.84,6.81-92.16,2.8-2.7-.38-5.35-.84-8-1.3,13.73-9.88,28.72-19.16,45.04-27.8,36.33-19.23,71.06-31.79,104.18-37.66,33.12-5.88,63.84-6.81,92.16-2.8,2.7.38,5.35.84,8,1.3-13.73,9.88-28.72,19.16-45.04,27.8Z"/>
  <path class="cls-1" d="M1501.25,545h-38.46s-.04,0-.06,0c-3.98.57-7.5,2.86-9.92,6.06-11.06,14.64-18.71,30.76-23.01,48.37-2.08,8.52-3.45,17.1-4.14,25.7-.88,11.38-.59,22.84.93,34.41,2.67,20.3,9.08,39.93,19.23,58.9,10.15,18.97,23.51,35.79,40.07,50.49,16.56,14.69,36.33,26.45,59.3,35.26,22.97,8.81,48.88,13.22,77.73,13.22,32.06,0,61.84-3.47,89.35-10.42,27.51-6.95,51.6-14.85,72.52-23.24,9.83-3.94,19.8-7.48,40.1-20.3v-87.08c-16.03,24.57-33.16,46.48-52.93,65.71-17.1,16.56-37.66,31.65-61.71,45.28-24.04,13.62-50.75,20.43-80.14,20.43-22.44,0-42.07-5.21-58.9-15.63-16.83-10.42-30.72-23.51-41.67-39.27-10.95-15.76-18.97-33.39-24.04-52.89-5.07-19.5-7.08-38.47-6.01-56.9.53-9.43,1.98-18.35,4.27-26.79,2.16-8.07,5.16-15.71,8.95-22.89,7.75-14.69,19.1-25.51,34.06-32.46,19.77-9.08,37.67-13.62,53.69-13.62,20.84,0,38.2,6.81,52.09,20.44,9.91,9.72,19.02,20.89,27.27,33.47,4.89-8.57,7.32-19.58,7.32-33.02,0-10.68-1.07-22.71-3.21-36.06-1.84-11.49-3.87-23.37-6.12-35.63-.35-2-.72-4.01-1.1-6.04-2.67-14.42-5.08-28.98-7.21-43.67-2.14-14.69-3.21-28.98-3.21-42.87,0-10.15.67-19.9,2-29.25.85-5.95,2.29-11.62,4.33-17.03,2.36-6.27,6.07-12.13,11.08-17.11,1.43-1.42,2.88-2.68,4.15-3.43l-14.09,4.52c-1.24.4-2.49.83-3.7,1.3-20.38,7.85-34.6,16.83-42.64,26.95-8.28,10.42-12.42,21.5-12.42,33.26,0,10.68,2.4,21.37,7.21,32.05,4.81,10.68,10.42,21.24,16.83,31.65,6.41,10.42,12.82,20.43,19.23,30.05.63.94,1.25,1.88,1.85,2.8,3.12,4.81,1.73,11.23-3.1,14.32l-.09.06c-12.02,7.75-24.44,13.09-37.26,16.03-12.82,2.94-24.58,4.41-35.26,4.41-29.92,0-55.56-6.68-76.93-20.03-10.94-6.84-20.6-14.5-29.01-23-6.21-6.28-10.79-14.01-13.29-22.49-.01-.04-.03-.09-.04-.13-4.27-14.42-6.41-29.38-6.41-44.88,0-19.23,3.21-39,9.62-59.3,6.41-20.3,16.16-40.07,29.25-59.3,7.99-11.73,17.26-23.21,27.86-34.43,6.28-6.73,13.06-13.36,20.33-19.9.48-.45.99-.91,1.5-1.36,20.03-17.9,43.67-34.06,70.92-48.48,36.33-19.23,71.06-31.79,104.18-37.66,33.12-5.88,63.84-6.81,92.16-2.8,28.32,4.01,53.56,12.29,75.73,24.84s39.93,27.91,53.29,46.08c20.84,27.25,31.25,57.97,31.25,92.16,0,22.44-4.54,45.14-13.62,68.12-9.08,22.97-22.71,45.01-40.87,66.11-18.16,21.1-40.74,40.87-67.72,59.3-23.27,15.89-49.63,29.92-79.07,42.02-4.67,1.95-9.46,3.82-14.29,5.66h177.9c9.62-22.44,18.16-45.94,25.64-70.52,5.88-20.84,11.49-44.48,16.83-70.92,5.34-26.45,8.01-53.56,8.01-81.34,0-39-7.75-73.73-23.24-104.18-15.49-30.45-36.46-56.23-62.91-77.33-26.44-21.1-57.43-37.26-92.96-48.48-35.53-11.22-73.59-16.83-114.2-16.83s-78.67,6.68-114.19,20.03c-35.53,13.36-66.51,31.65-92.96,54.89-26.44,23.24-47.41,50.49-62.91,81.74-7.61,15.36-13.38,31.23-17.2,47.55-4.03,16.88-6.04,34.3-6.04,52.22,0,38.47,9.08,74.26,27.25,107.38,18.16,33.12,42.47,61.71,72.92,85.75Z"/>
  <path class="cls-1" d="M1880.47,1948.52h38.46s.04,0,.06,0c3.98-.57,7.5-2.86,9.92-6.06,11.06-14.64,18.71-30.76,23.01-48.37,2.08-8.52,3.45-17.1,4.14-25.7.88-11.38.59-22.84-.93-34.41-2.67-20.3-9.08-39.93-19.23-58.9-10.15-18.97-23.51-35.79-40.07-50.49-16.56-14.69-36.33-26.45-59.3-35.26-22.97-8.81-48.88-13.22-77.73-13.22-32.06,0-61.84,3.47-89.35,10.42-27.51,6.95-51.6,14.85-72.52,23.24-9.83,3.94-19.8,7.48-40.1,20.3v87.08c16.03-24.58,33.16-46.48,52.93-65.71,17.1-16.56,37.66-31.65,61.71-45.28,24.04-13.62,50.75-20.43,80.14-20.43,22.44,0,42.07,5.21,58.9,15.63,16.83,10.42,30.72,23.51,41.67,39.27,10.95,15.76,18.97,33.39,24.04,52.89,5.07,19.5,7.08,38.47,6.01,56.9-.53,9.43-1.98,18.35-4.27,26.79-2.16,8.07-5.16,15.71-8.95,22.89-7.75,14.69-19.1,25.51-34.06,32.46-19.77,9.08-37.67,13.62-53.69,13.62-20.84,0-38.2-6.81-52.09-20.43-9.91-9.72-19.02-20.89-27.27-33.47-4.89,8.57-7.32,19.58-7.32,33.02,0,10.68,1.07,22.71,3.21,36.06,1.84,11.49,3.87,23.37,6.12,35.63.35,2,.72,4.01,1.1,6.04,2.67,14.42,5.08,28.98,7.21,43.67,2.14,14.69,3.21,28.98,3.21,42.87,0,10.15-.67,19.9-2,29.25-.85,5.95-2.29,11.62-4.33,17.03-2.36,6.27-6.07,12.13-11.08,17.11-1.43,1.42-2.88,2.68-4.15,3.43l14.09-4.52c1.24-.4,2.49-.83,3.7-1.3,20.38-7.85,34.6-16.83,42.64-26.95,8.28-10.42,12.42-21.5,12.42-33.26,0-10.68-2.4-21.37-7.21-32.05-4.81-10.68-10.42-21.24-16.83-31.65-6.41-10.42-12.82-20.43-19.23-30.05-.63-.94-1.25-1.88-1.85-2.8-3.12-4.81-1.73-11.23,3.1-14.32l.09-.06c12.02-7.75,24.44-13.09,37.26-16.03,12.82-2.94,24.58-4.41,35.26-4.41,29.92,0,55.56,6.68,76.93,20.03,10.94,6.84,20.6,14.5,29.01,23,6.21,6.28,10.79,14.01,13.29,22.49.01.04.03.09.04.13,4.27,14.42,6.41,29.38,6.41,44.88,0,19.23-3.21,39-9.62,59.3-6.41,20.3-16.16,40.07-29.25,59.3-7.99,11.73-17.26,23.21-27.86,34.43-6.28,6.73-13.06,13.36-20.33,19.9-.48.45-.99.91-1.5,1.36-20.03,17.9-43.67,34.06-70.92,48.48-36.33,19.23-71.06,31.79-104.18,37.66-33.12,5.88-63.84,6.81-92.16,2.8-28.32-4.01-53.56-12.29-75.73-24.84-22.17-12.55-39.93-27.91-53.29-46.08-20.84-27.25-31.25-57.97-31.25-92.16,0-22.44,4.54-45.14,13.62-68.12,9.08-22.97,22.71-45.01,40.87-66.11,18.16-21.1,40.74-40.87,67.72-59.3,23.27-15.89,49.63-29.92,79.07-42.02,4.67-1.95,9.46-3.82,14.29-5.66h-177.9c-9.62,22.44-18.16,45.95-25.64,70.52-5.88,20.84-11.49,44.48-16.83,70.92-5.34,26.45-8.01,53.56-8.01,81.34,0,39,7.75,73.73,23.24,104.18,15.49,30.45,36.46,56.23,62.91,77.33,26.44,21.1,57.43,37.26,92.96,48.48,35.53,11.22,73.59,16.83,114.2,16.83s78.67-6.68,114.19-20.03c35.53-13.36,66.51-31.65,92.96-54.89,26.44-23.24,47.41-50.49,62.91-81.74,7.61-15.36,13.38-31.23,17.2-47.55,4.03-16.88,6.04-34.3,6.04-52.22,0-38.47-9.08-74.26-27.25-107.38-18.16-33.12-42.47-61.71-72.92-85.75Z"/>
</svg>