<?xml version="1.0" encoding="UTF-8"?>
<svg id="Layer_1" data-name="Layer 1" xmlns="http://www.w3.org/2000/svg" viewBox="0 0 2076.26 2493.52">
  <defs>
    <style>
      .cls-1 {
        fill: #226fb4;
      }
    </style>
  </defs>
  <path class="cls-1" d="M460.37,625.87c28.59,0,54.62,4.43,77.37,13.16,22.75,8.73,42.6,20.53,59,35.07,16.4,14.55,29.8,31.44,39.85,50.21,10.05,18.77,16.48,38.47,19.12,58.56,1.49,11.35,1.81,22.86.93,34.19-.7,8.63-2.08,17.23-4.12,25.54-4.25,17.42-11.93,33.57-22.83,48-2.38,3.15-5.66,5.16-9.26,5.67h-41.27l2.26,1.78c30.2,23.85,54.65,52.59,72.67,85.44,18,32.82,27.12,68.79,27.12,106.9,0,17.81-2.02,35.3-6.01,51.99-3.76,16.07-9.52,32-17.12,47.33-9.74,19.66-21.89,38.02-36.11,54.57l-.55.64.54.65c11.27,13.5,21.05,28.36,29.09,44.16,15.35,30.17,23.13,65.07,23.13,103.72,0,27.59-2.69,54.89-7.99,81.14-5.31,26.3-10.97,50.14-16.8,70.83-7.37,24.2-15.89,47.69-25.35,69.81h-171.87c3.46-1.35,6.48-2.57,9.29-3.74,29.32-12.05,55.99-26.22,79.25-42.12,26.93-18.39,49.77-38.4,67.91-59.47,18.15-21.09,31.96-43.43,41.04-66.4,9.09-22.98,13.69-46.02,13.69-68.48,0-34.26-10.58-65.47-31.45-92.75-6.18-8.4-13.52-16.4-21.82-23.78l-.71-.63-.67.67c-4.92,4.95-9.15,8.96-13.31,12.61-26.23,23.05-57.4,41.46-92.65,54.71-35.25,13.25-73.55,19.97-113.84,19.97s-78.63-5.65-113.89-16.78c-17.37-5.49-33.92-12.28-49.18-20.2l-.64-.33-.52.5c-4.95,4.74-8.89,8.71-12.4,12.47-10.51,11.11-19.91,22.74-27.96,34.56-13.08,19.22-22.97,39.26-29.38,59.56-6.41,20.3-9.66,40.36-9.66,59.6,0,15.52,2.17,30.71,6.45,45.15l.04.14c2.53,8.59,7.21,16.51,13.54,22.91,8.42,8.51,18.24,16.3,29.19,23.15,21.43,13.39,47.49,20.19,77.46,20.19,10.71,0,22.65-1.49,35.48-4.43,12.88-2.95,25.52-8.39,37.58-16.16l.09-.06c2.56-1.64,4.33-4.17,4.97-7.14.64-2.97.09-6.01-1.57-8.56-.6-.93-1.22-1.87-1.86-2.81-6.38-9.57-12.84-19.67-19.21-30.02-6.36-10.34-12-20.95-16.77-31.54-4.73-10.51-7.12-21.15-7.12-31.64,0-11.47,4.11-22.45,12.2-32.63,7.89-9.93,22.1-18.89,42.22-26.64,1.11-.43,2.34-.86,3.65-1.28l9.11-2.92c-.06.06-.12.12-.18.18-5.02,4.99-8.82,10.87-11.31,17.47-2.05,5.45-3.53,11.25-4.39,17.24-1.34,9.36-2.01,19.25-2.01,29.39,0,13.87,1.08,28.34,3.22,43.02,2.13,14.63,4.56,29.34,7.22,43.71l.15.81c.32,1.75.64,3.48.95,5.22,2.15,11.73,4.2,23.72,6.11,35.61,2.12,13.24,3.19,25.32,3.19,35.9,0,12.47-2.15,22.91-6.4,31.08-8-12.01-16.91-22.85-26.49-32.25-14.02-13.75-31.78-20.72-52.79-20.72-16.1,0-34.3,4.61-54.11,13.72-15.09,7.01-26.71,18.07-34.52,32.9-3.82,7.24-6.86,15.01-9.03,23.1-2.33,8.55-3.78,17.64-4.31,27-1.07,18.45.96,37.7,6.04,57.21,5.08,19.52,13.22,37.43,24.19,53.21,10.98,15.8,25.1,29.1,41.97,39.55,16.91,10.47,36.9,15.78,59.43,15.78,29.42,0,56.55-6.92,80.63-20.56,24-13.6,44.83-28.89,61.91-45.43,17.93-17.45,34.71-38.11,51.23-63.08v83.19c-18.25,11.49-28.22,15.45-37.03,18.95-.82.33-1.63.65-2.45.98-21.96,8.81-46.32,16.62-72.4,23.2-27.3,6.89-57.28,10.39-89.11,10.39-28.59,0-54.62-4.43-77.37-13.16-22.75-8.73-42.6-20.53-59-35.07-16.4-14.54-29.8-31.44-39.85-50.21-10.05-18.77-16.48-38.47-19.12-58.56-1.49-11.35-1.81-22.86-.93-34.19.7-8.63,2.08-17.23,4.12-25.54,4.25-17.42,11.93-33.57,22.83-48,2.37-3.14,5.65-5.16,9.26-5.67h41.28l-2.26-1.78c-30.2-23.85-54.65-52.59-72.67-85.44-18-32.82-27.12-68.79-27.12-106.9,0-17.81,2.02-35.3,6.01-51.99,3.76-16.07,9.52-32,17.12-47.33,9.74-19.66,21.89-38.02,36.11-54.57l.55-.64-.54-.65c-11.26-13.5-21.05-28.36-29.09-44.16-15.35-30.17-23.13-65.07-23.13-103.72,0-27.58,2.69-54.88,7.99-81.14,5.31-26.29,10.97-50.13,16.8-70.83,7.37-24.2,15.89-47.69,25.35-69.81h171.87c-3.46,1.35-6.49,2.57-9.3,3.74-29.32,12.05-55.98,26.22-79.25,42.12-26.93,18.39-49.77,38.4-67.91,59.47-18.15,21.09-31.96,43.43-41.04,66.4-9.09,22.98-13.69,46.02-13.69,68.48,0,34.26,10.58,65.47,31.45,92.75,6.18,8.4,13.52,16.4,21.82,23.78l.71.63.67-.67c4.93-4.95,9.16-8.96,13.31-12.61,26.23-23.05,57.4-41.46,92.65-54.71,35.25-13.25,73.55-19.97,113.84-19.97s78.63,5.65,113.89,16.78c17.38,5.49,33.92,12.28,49.18,20.2l.64.33.52-.5c4.95-4.75,8.9-8.71,12.4-12.47,10.51-11.11,19.91-22.74,27.96-34.56,13.08-19.22,22.97-39.26,29.38-59.56,6.41-20.3,9.66-40.36,9.66-59.6,0-15.51-2.17-30.71-6.45-45.16l-.04-.13c-2.53-8.59-7.21-16.51-13.54-22.91-8.42-8.51-18.24-16.3-29.19-23.15-21.43-13.39-47.49-20.19-77.46-20.19-10.71,0-22.65,1.49-35.48,4.43-12.87,2.95-25.52,8.39-37.58,16.16l-.08.05c-2.56,1.64-4.33,4.17-4.97,7.14-.64,2.97-.09,6.01,1.57,8.56.6.93,1.22,1.87,1.86,2.81,6.38,9.57,12.84,19.67,19.21,30.02,6.36,10.34,12,20.95,16.77,31.54,4.73,10.5,7.12,21.15,7.12,31.64,0,11.47-4.11,22.45-12.2,32.63-7.89,9.93-22.1,18.89-42.22,26.64-1.1.43-2.33.85-3.65,1.28l-9.11,2.92c.06-.06.12-.12.18-.18,5.02-4.99,8.82-10.87,11.31-17.47,2.05-5.45,3.53-11.25,4.39-17.24,1.34-9.35,2.01-19.24,2.01-29.39,0-13.87-1.08-28.34-3.22-43.02-2.13-14.63-4.56-29.34-7.22-43.71l-.17-.91c-.32-1.72-.63-3.42-.93-5.12-2.15-11.74-4.2-23.72-6.11-35.61-2.12-13.24-3.19-25.32-3.19-35.9,0-12.47,2.15-22.91,6.4-31.08,8.01,12.01,16.91,22.85,26.49,32.25,14.02,13.75,31.78,20.72,52.79,20.72,16.1,0,34.3-4.61,54.11-13.72,15.09-7.01,26.71-18.07,34.52-32.9,3.82-7.24,6.86-15.01,9.03-23.1,2.33-8.55,3.78-17.64,4.31-27,1.07-18.45-.96-37.7-6.04-57.21-5.08-19.52-13.22-37.42-24.19-53.21-10.98-15.8-25.1-29.1-41.97-39.55-16.91-10.47-36.9-15.78-59.43-15.78-29.42,0-56.55,6.92-80.63,20.56-24,13.6-44.83,28.89-61.91,45.43-17.93,17.45-34.71,38.11-51.23,63.08v-83.19c18.25-11.49,28.22-15.45,37.03-18.95.82-.33,1.63-.65,2.45-.97,21.97-8.81,46.32-16.62,72.4-23.2,27.3-6.89,57.28-10.39,89.11-10.39M304.33,1284.98c17.97,0,37.05-1.77,56.71-5.26,33.07-5.87,68.22-18.57,104.47-37.77,16.16-8.56,31.36-17.93,45.16-27.87l1.93-1.39-2.34-.41c-2.95-.51-5.42-.94-8.03-1.31-11.47-1.62-23.5-2.45-35.76-2.45-17.97,0-37.05,1.77-56.71,5.26-33.07,5.87-68.22,18.57-104.47,37.77-16.16,8.56-31.35,17.93-45.16,27.87l-1.93,1.39,2.34.41c2.45.43,5.22.91,8.03,1.31,11.47,1.62,23.5,2.45,35.76,2.45M460.37,624.87c-32.05,0-61.84,3.47-89.35,10.42-27.51,6.95-51.6,14.85-72.52,23.24-9.83,3.94-19.8,7.48-40.1,20.3v87.08c16.03-24.57,33.16-46.48,52.93-65.71,17.1-16.56,37.66-31.65,61.71-45.28,24.04-13.62,50.75-20.43,80.14-20.43,22.44,0,42.07,5.21,58.9,15.63,16.83,10.42,30.72,23.51,41.67,39.27,10.95,15.76,18.97,33.39,24.04,52.89,5.07,19.5,7.08,38.47,6.01,56.9-.53,9.43-1.98,18.35-4.27,26.79-2.16,8.07-5.16,15.71-8.95,22.89-7.75,14.69-19.1,25.51-34.06,32.46-19.77,9.08-37.67,13.62-53.69,13.62-20.84,0-38.2-6.81-52.09-20.44-9.91-9.72-19.02-20.89-27.27-33.47-4.89,8.57-7.32,19.58-7.32,33.02,0,10.68,1.07,22.71,3.21,36.06,1.84,11.49,3.87,23.37,6.12,35.63.35,2,.72,4.01,1.1,6.04,2.67,14.42,5.08,28.98,7.21,43.67,2.14,14.69,3.21,28.98,3.21,42.87,0,10.15-.67,19.9-2,29.25-.85,5.95-2.29,11.62-4.33,17.03-2.36,6.27-6.07,12.13-11.08,17.11-1.43,1.42-2.88,2.68-4.15,3.43l14.09-4.52c1.24-.4,2.49-.83,3.7-1.3,20.38-7.85,34.6-16.83,42.64-26.95,8.28-10.42,12.42-21.5,12.42-33.26,0-10.68-2.4-21.37-7.21-32.05-4.81-10.68-10.42-21.24-16.83-31.65-6.41-10.42-12.82-20.43-19.23-30.05-.63-.94-1.25-1.88-1.85-2.8-3.12-4.81-1.73-11.23,3.1-14.32l.09-.06c12.02-7.75,24.44-13.09,37.26-16.03,12.82-2.94,24.58-4.41,35.26-4.41,29.92,0,55.56,6.68,76.93,20.03,10.94,6.84,20.6,14.5,29.01,23,6.21,6.28,10.79,14.01,13.29,22.49.01.04.03.09.04.13,4.27,14.42,6.41,29.38,6.41,44.88,0,19.23-3.21,39-9.62,59.3-6.41,20.3-16.16,40.07-29.25,59.3-7.99,11.73-17.26,23.21-27.86,34.43-3.91,4.19-8.08,8.32-12.37,12.44-15.34-7.96-31.78-14.72-49.34-20.27-35.53-11.22-73.59-16.83-114.19-16.83s-78.67,6.68-114.19,20.03c-35.53,13.36-66.51,31.65-92.96,54.89-4.64,4.08-9.05,8.33-13.36,12.65-8.18-7.27-15.43-15.13-21.68-23.63-20.84-27.25-31.25-57.97-31.25-92.16,0-22.44,4.54-45.14,13.62-68.12,9.08-22.97,22.71-45.01,40.87-66.11,18.16-21.1,40.74-40.87,67.72-59.3,23.27-15.89,49.63-29.92,79.07-42.02,4.67-1.95,9.46-3.82,14.29-5.66h-177.9c-9.62,22.44-18.16,45.94-25.64,70.52-5.88,20.84-11.49,44.48-16.83,70.92-5.34,26.45-8.01,53.56-8.01,81.34,0,39,7.75,73.73,23.24,104.18,8.19,16.1,17.96,30.86,29.22,44.35-14.29,16.64-26.39,34.89-36.25,54.78-7.61,15.36-13.38,31.23-17.2,47.55-4.03,16.88-6.04,34.3-6.04,52.22,0,38.47,9.08,74.26,27.25,107.38,18.16,33.12,42.47,61.71,72.92,85.75h-38.46s-.04,0-.06,0c-3.98.57-7.5,2.86-9.92,6.06-11.06,14.64-18.71,30.76-23.01,48.37-2.08,8.52-3.45,17.1-4.14,25.7-.88,11.38-.59,22.84.93,34.41,2.67,20.3,9.08,39.93,19.23,58.9,10.15,18.97,23.51,35.79,40.07,50.49s36.33,26.45,59.3,35.26c22.97,8.82,48.88,13.22,77.73,13.22,32.06,0,61.84-3.47,89.35-10.42,27.51-6.95,51.6-14.85,72.52-23.24,9.83-3.94,19.8-7.48,40.1-20.3v-87.08c-16.03,24.58-33.16,46.48-52.93,65.71-17.1,16.56-37.66,31.65-61.71,45.28-24.04,13.62-50.75,20.43-80.14,20.43-22.44,0-42.07-5.21-58.9-15.63-16.83-10.42-30.72-23.51-41.67-39.27-10.95-15.76-18.97-33.39-24.04-52.89-5.07-19.5-7.08-38.47-6.01-56.9.53-9.43,1.98-18.35,4.27-26.79,2.16-8.07,5.16-15.71,8.95-22.89,7.75-14.69,19.1-25.51,34.06-32.46,19.77-9.08,37.67-13.62,53.69-13.62,20.84,0,38.2,6.81,52.09,20.43,9.91,9.72,19.02,20.89,27.27,33.47,4.89-8.57,7.32-19.58,7.32-33.02,0-10.68-1.07-22.71-3.21-36.06-1.84-11.49-3.87-23.37-6.12-35.63-.35-2-.72-4.01-1.1-6.04-2.67-14.42-5.08-28.98-7.21-43.67-2.14-14.69-3.21-28.98-3.21-42.87,0-10.15.67-19.9,2-29.25.85-5.95,2.29-11.62,4.33-17.03,2.36-6.27,6.07-12.13,11.08-17.11,1.43-1.42,2.88-2.68,4.15-3.43l-14.09,4.52c-1.24.4-2.49.83-3.7,1.3-20.38,7.85-34.6,16.83-42.64,26.95-8.28,10.42-12.42,21.5-12.42,33.26,0,10.68,2.4,21.37,7.21,32.05,4.81,10.68,10.42,21.24,16.83,31.65,6.41,10.42,12.82,20.43,19.23,30.05.63.94,1.25,1.88,1.85,2.8,3.12,4.81,1.73,11.23-3.1,14.32l-.09.06c-12.02,7.75-24.44,13.09-37.26,16.03-12.82,2.94-24.58,4.41-35.26,4.41-29.92,0-55.56-6.68-76.93-20.03-10.94-6.84-20.6-14.5-29.01-23-6.21-6.28-10.79-14.01-13.29-22.49-.01-.04-.03-.09-.04-.13-4.27-14.42-6.41-29.38-6.41-44.88,0-19.23,3.21-39,9.62-59.3,6.41-20.3,16.16-40.07,29.25-59.3,7.99-11.73,17.26-23.21,27.86-34.43,3.91-4.19,8.08-8.32,12.37-12.44,15.34,7.96,31.78,14.72,49.34,20.27,35.53,11.22,73.59,16.83,114.19,16.83s78.67-6.68,114.19-20.03,66.51-31.65,92.96-54.89c4.64-4.08,9.05-8.33,13.36-12.65,8.18,7.27,15.43,15.13,21.68,23.63,20.84,27.25,31.25,57.97,31.25,92.16,0,22.44-4.54,45.14-13.62,68.12-9.08,22.97-22.71,45.01-40.87,66.11-18.16,21.1-40.74,40.87-67.72,59.3-23.27,15.89-49.63,29.92-79.07,42.02-4.67,1.95-9.46,3.82-14.29,5.66h177.9c9.62-22.44,18.16-45.94,25.64-70.52,5.88-20.84,11.49-44.48,16.83-70.92,5.34-26.45,8.01-53.56,8.01-81.34,0-39-7.75-73.73-23.24-104.18-8.19-16.1-17.96-30.86-29.22-44.35,14.29-16.64,26.39-34.89,36.25-54.78,7.61-15.36,13.38-31.23,17.2-47.55,4.03-16.88,6.04-34.3,6.04-52.22,0-38.47-9.08-74.26-27.25-107.38-18.16-33.12-42.47-61.71-72.92-85.75h38.46s.04,0,.06,0c3.98-.57,7.5-2.86,9.92-6.06,11.06-14.64,18.71-30.76,23.01-48.37,2.08-8.52,3.45-17.1,4.14-25.7.88-11.38.59-22.84-.93-34.41-2.67-20.3-9.08-39.93-19.23-58.9-10.15-18.97-23.51-35.79-40.07-50.49-16.56-14.69-36.33-26.45-59.3-35.26-22.97-8.81-48.88-13.22-77.73-13.22h0ZM304.33,1283.98c-12.27,0-24.14-.81-35.62-2.44-2.7-.38-5.35-.84-8-1.3,13.73-9.88,28.72-19.16,45.04-27.8,36.33-19.23,71.06-31.79,104.18-37.66,19.69-3.49,38.54-5.24,56.54-5.24,12.27,0,24.14.81,35.62,2.44,2.7.38,5.35.84,8,1.3-13.73,9.88-28.73,19.16-45.04,27.8-36.33,19.23-71.05,31.79-104.18,37.66-19.69,3.49-38.54,5.24-56.54,5.24h0Z"/>
  <path class="cls-1" d="M388.91,96.43c40.31,0,78.63,5.65,113.89,16.78,35.24,11.13,66.41,27.38,92.64,48.31,26.21,20.91,47.28,46.82,62.64,77,15.35,30.17,23.13,65.07,23.13,103.72,0,27.59-2.69,54.89-7.99,81.14-5.31,26.29-10.97,50.13-16.8,70.83-7.37,24.2-15.89,47.69-25.35,69.81h-171.87c3.46-1.35,6.49-2.57,9.3-3.74,29.32-12.05,55.98-26.22,79.25-42.12,26.93-18.39,49.77-38.4,67.91-59.47,18.15-21.09,31.96-43.43,41.04-66.4,9.09-22.98,13.69-46.02,13.69-68.48,0-34.26-10.58-65.47-31.45-92.75-13.38-18.19-31.41-33.79-53.6-46.36-22.18-12.56-47.78-20.96-76.08-24.96-11.47-1.62-23.5-2.45-35.76-2.45-17.97,0-37.05,1.77-56.71,5.26-33.07,5.87-68.22,18.57-104.47,37.77-27.19,14.4-51.12,30.75-71.12,48.62l-.04.04c-.5.45-1,.89-1.46,1.33-7.36,6.63-14.22,13.35-20.38,19.96-10.51,11.11-19.91,22.74-27.96,34.56-13.08,19.22-22.97,39.26-29.38,59.56-6.41,20.3-9.66,40.36-9.66,59.6,0,15.52,2.17,30.71,6.45,45.16l.04.13c2.53,8.59,7.21,16.51,13.54,22.91,8.42,8.51,18.24,16.3,29.19,23.15,21.43,13.39,47.49,20.19,77.46,20.19,10.71,0,22.65-1.49,35.48-4.43,12.87-2.95,25.52-8.39,37.58-16.16l.09-.05c2.56-1.64,4.33-4.17,4.97-7.14.64-2.97.09-6.01-1.57-8.56-.6-.93-1.22-1.87-1.86-2.81-6.38-9.57-12.84-19.67-19.21-30.02-6.36-10.34-12-20.95-16.77-31.54-4.73-10.5-7.12-21.15-7.12-31.64,0-11.47,4.11-22.45,12.2-32.63,7.89-9.93,22.1-18.89,42.22-26.64,1.1-.42,2.33-.85,3.64-1.28l9.11-2.92c-.06.06-.12.12-.18.18-5.02,4.99-8.82,10.87-11.31,17.47-2.05,5.45-3.53,11.25-4.39,17.24-1.34,9.36-2.01,19.25-2.01,29.39,0,13.87,1.08,28.34,3.22,43.02,2.13,14.63,4.56,29.34,7.22,43.71l.16.88c.32,1.73.63,3.43.93,5.15,2.15,11.74,4.2,23.72,6.11,35.61,2.12,13.24,3.19,25.32,3.19,35.9,0,12.47-2.15,22.91-6.4,31.08-8.01-12.01-16.91-22.85-26.49-32.25-14.02-13.75-31.78-20.72-52.79-20.72-16.1,0-34.3,4.61-54.11,13.72-15.09,7.01-26.71,18.07-34.52,32.9-3.82,7.24-6.86,15.01-9.03,23.1-2.33,8.55-3.78,17.64-4.31,27-1.07,18.45.96,37.7,6.04,57.21,5.08,19.52,13.22,37.42,24.19,53.21,10.98,15.8,25.1,29.1,41.97,39.55,16.91,10.47,36.9,15.78,59.43,15.78,29.42,0,56.55-6.92,80.63-20.56,24-13.6,44.83-28.89,61.91-45.43,17.93-17.45,34.71-38.11,51.23-63.08v83.19c-18.25,11.49-28.22,15.45-37.03,18.95-.82.33-1.63.65-2.45.97-21.97,8.81-46.32,16.62-72.4,23.2-27.31,6.89-57.29,10.39-89.11,10.39-28.59,0-54.62-4.43-77.37-13.16-22.75-8.73-42.6-20.53-59-35.07-16.4-14.54-29.8-31.44-39.85-50.21-10.05-18.77-16.48-38.47-19.12-58.56-1.5-11.35-1.81-22.86-.93-34.19.7-8.63,2.08-17.23,4.12-25.54,4.25-17.42,11.93-33.57,22.83-48,2.38-3.15,5.66-5.16,9.26-5.67h41.27l-2.26-1.78c-30.2-23.85-54.65-52.59-72.67-85.44-18-32.82-27.12-68.79-27.12-106.9,0-17.81,2.02-35.3,6.01-51.99,3.76-16.07,9.52-32,17.12-47.33,15.36-30.99,36.45-58.39,62.67-81.43,26.23-23.05,57.4-41.46,92.65-54.71,35.25-13.25,73.55-19.97,113.84-19.97M388.91,95.43c-40.6,0-78.67,6.68-114.19,20.03s-66.51,31.65-92.96,54.89c-26.44,23.24-47.41,50.49-62.91,81.74-7.61,15.36-13.38,31.23-17.2,47.55-4.03,16.88-6.04,34.3-6.04,52.22,0,38.47,9.08,74.26,27.25,107.38,18.16,33.12,42.47,61.71,72.92,85.75h-38.46s-.04,0-.06,0c-3.98.57-7.5,2.86-9.92,6.06-11.06,14.64-18.71,30.76-23.01,48.37-2.08,8.52-3.45,17.1-4.14,25.7-.88,11.38-.59,22.84.93,34.41,2.67,20.3,9.08,39.93,19.23,58.9,10.15,18.97,23.51,35.79,40.07,50.49,16.56,14.69,36.33,26.45,59.3,35.26,22.97,8.81,48.88,13.22,77.73,13.22,32.05,0,61.84-3.47,89.35-10.42,27.51-6.95,51.6-14.85,72.52-23.24,9.83-3.94,19.8-7.48,40.1-20.3v-87.08c-16.03,24.57-33.16,46.48-52.93,65.71-17.1,16.56-37.66,31.65-61.71,45.28-24.04,13.62-50.75,20.43-80.14,20.43-22.44,0-42.07-5.21-58.9-15.63-16.83-10.42-30.72-23.51-41.67-39.27-10.95-15.76-18.97-33.39-24.04-52.89-5.07-19.5-7.08-38.47-6.01-56.9.53-9.43,1.98-18.35,4.27-26.79,2.16-8.07,5.16-15.71,8.95-22.89,7.75-14.69,19.1-25.51,34.06-32.46,19.77-9.08,37.67-13.62,53.69-13.62,20.84,0,38.2,6.81,52.09,20.43,9.91,9.72,19.02,20.89,27.27,33.47,4.89-8.57,7.32-19.58,7.32-33.02,0-10.68-1.07-22.71-3.21-36.06-1.84-11.49-3.87-23.37-6.12-35.63-.35-2-.72-4.01-1.1-6.04-2.67-14.42-5.08-28.98-7.21-43.67-2.14-14.69-3.21-28.98-3.21-42.87,0-10.15.67-19.9,2-29.25.85-5.95,2.29-11.62,4.33-17.03,2.36-6.27,6.07-12.13,11.08-17.11,1.43-1.42,2.88-2.68,4.15-3.43l-14.09,4.52c-1.24.4-2.49.83-3.7,1.3-20.38,7.85-34.6,16.83-42.64,26.95-8.28,10.42-12.42,21.5-12.42,33.26,0,10.68,2.4,21.37,7.21,32.05,4.81,10.68,10.42,21.24,16.83,31.65,6.41,10.42,12.82,20.43,19.23,30.05.63.94,1.25,1.88,1.85,2.8,3.12,4.81,1.73,11.23-3.1,14.32l-.09.06c-12.02,7.75-24.44,13.09-37.26,16.03-12.82,2.94-24.58,4.41-35.26,4.41-29.92,0-55.56-6.68-76.93-20.03-10.94-6.84-20.6-14.5-29.01-23-6.21-6.28-10.79-14.01-13.29-22.49-.01-.04-.03-.09-.04-.13-4.27-14.42-6.41-29.38-6.41-44.88,0-19.23,3.21-39,9.62-59.3,6.41-20.3,16.16-40.07,29.25-59.3,7.99-11.73,17.26-23.21,27.86-34.43,6.28-6.73,13.06-13.36,20.33-19.9.48-.45.99-.91,1.5-1.36,20.03-17.9,43.68-34.06,70.92-48.48,36.33-19.23,71.06-31.79,104.18-37.66,19.69-3.49,38.54-5.24,56.54-5.24,12.27,0,24.14.81,35.62,2.44,28.31,4.01,53.56,12.29,75.73,24.84,22.17,12.55,39.93,27.91,53.29,46.08,20.84,27.25,31.25,57.97,31.25,92.16,0,22.44-4.54,45.14-13.62,68.12-9.08,22.97-22.71,45.01-40.87,66.11-18.16,21.1-40.74,40.87-67.72,59.3-23.27,15.89-49.63,29.92-79.07,42.02-4.67,1.95-9.46,3.82-14.29,5.66h177.9c9.62-22.44,18.16-45.95,25.64-70.52,5.88-20.84,11.49-44.48,16.83-70.92,5.34-26.45,8.01-53.56,8.01-81.34,0-39-7.75-73.73-23.24-104.18-15.49-30.45-36.46-56.23-62.91-77.33-26.44-21.1-57.43-37.26-92.96-48.48-35.53-11.22-73.59-16.83-114.19-16.83h0Z"/>
  <path class="cls-1" d="M453.34,1677.11c28.59,0,54.62,4.43,77.37,13.16,22.75,8.73,42.6,20.53,59,35.07,16.39,14.54,29.8,31.44,39.85,50.21,10.05,18.77,16.48,38.47,19.12,58.56,1.5,11.35,1.81,22.86.93,34.19-.7,8.63-2.08,17.22-4.12,25.54-4.25,17.42-11.93,33.57-22.83,48-2.38,3.15-5.66,5.16-9.25,5.67h-41.28l2.26,1.78c30.2,23.85,54.65,52.59,72.67,85.44,18,32.82,27.12,68.79,27.12,106.9,0,17.81-2.02,35.3-6.01,51.99-3.76,16.07-9.52,32-17.12,47.33-15.36,30.99-36.45,58.39-62.67,81.43-26.23,23.05-57.4,41.46-92.65,54.71-35.25,13.25-73.55,19.97-113.84,19.97s-78.63-5.65-113.89-16.78c-35.24-11.13-66.41-27.38-92.64-48.31-26.21-20.91-47.28-46.82-62.64-77-15.35-30.17-23.13-65.07-23.13-103.72,0-27.59,2.69-54.89,7.99-81.14,5.31-26.3,10.97-50.13,16.8-70.83,7.37-24.2,15.89-47.69,25.35-69.81h171.87c-3.46,1.35-6.49,2.57-9.29,3.74-29.32,12.05-55.99,26.22-79.25,42.12-26.92,18.39-49.77,38.4-67.91,59.47-18.15,21.09-31.96,43.43-41.04,66.4-9.09,22.98-13.69,46.02-13.69,68.48,0,34.26,10.58,65.47,31.45,92.75,13.38,18.19,31.41,33.79,53.6,46.36,22.18,12.56,47.78,20.96,76.08,24.96,11.47,1.62,23.5,2.45,35.76,2.45,17.97,0,37.05-1.77,56.71-5.26,33.07-5.87,68.22-18.57,104.47-37.77,27.19-14.4,51.12-30.75,71.13-48.63.51-.46,1.02-.91,1.49-1.35,7.36-6.63,14.22-13.34,20.38-19.96,10.51-11.12,19.91-22.74,27.96-34.56,13.08-19.22,22.97-39.26,29.38-59.56,6.41-20.3,9.66-40.36,9.66-59.6,0-15.52-2.17-30.71-6.45-45.16l-.04-.13c-2.53-8.59-7.21-16.51-13.54-22.91-8.42-8.52-18.24-16.3-29.19-23.15-21.43-13.39-47.49-20.19-77.46-20.19-10.71,0-22.65,1.49-35.48,4.43-12.88,2.95-25.52,8.39-37.58,16.16l-.09.06c-2.56,1.64-4.33,4.17-4.97,7.14-.64,2.97-.09,6.01,1.57,8.56.6.93,1.22,1.87,1.86,2.81,6.38,9.57,12.84,19.67,19.21,30.02,6.36,10.33,12,20.95,16.77,31.54,4.73,10.5,7.12,21.15,7.12,31.64,0,11.47-4.11,22.45-12.2,32.63-7.89,9.93-22.1,18.89-42.22,26.64-1.1.43-2.33.85-3.64,1.28l-9.11,2.92c.06-.06.12-.12.18-.18,5.02-4.99,8.82-10.87,11.31-17.47,2.05-5.45,3.53-11.25,4.39-17.24,1.34-9.35,2.01-19.24,2.01-29.39,0-13.87-1.08-28.34-3.22-43.02-2.13-14.62-4.56-29.33-7.22-43.71l-.16-.88c-.32-1.73-.63-3.44-.93-5.16-2.15-11.77-4.21-23.75-6.11-35.61-2.12-13.24-3.19-25.32-3.19-35.9,0-12.47,2.15-22.91,6.4-31.08,8.01,12.01,16.91,22.85,26.49,32.25,14.02,13.75,31.78,20.72,52.79,20.72,16.1,0,34.3-4.61,54.11-13.72,15.09-7.01,26.71-18.07,34.52-32.9,3.82-7.24,6.86-15.01,9.03-23.1,2.33-8.55,3.78-17.64,4.31-27,1.07-18.45-.96-37.7-6.04-57.21-5.08-19.52-13.22-37.42-24.19-53.21-10.98-15.8-25.1-29.1-41.97-39.55-16.91-10.47-36.9-15.78-59.43-15.78-29.42,0-56.55,6.92-80.63,20.56-24,13.6-44.83,28.89-61.91,45.43-17.93,17.45-34.71,38.11-51.23,63.08v-83.19c18.25-11.49,28.22-15.45,37.03-18.95.82-.33,1.63-.65,2.45-.97,21.96-8.81,46.32-16.62,72.4-23.2,27.3-6.89,57.29-10.39,89.11-10.39M453.34,1676.11c-32.06,0-61.84,3.47-89.35,10.42-27.51,6.95-51.6,14.85-72.52,23.24-9.83,3.94-19.8,7.48-40.1,20.3v87.08c16.03-24.58,33.16-46.48,52.93-65.71,17.1-16.56,37.66-31.65,61.71-45.28,24.04-13.62,50.75-20.43,80.14-20.43,22.44,0,42.07,5.21,58.9,15.63,16.83,10.42,30.72,23.51,41.67,39.27,10.95,15.76,18.97,33.39,24.04,52.89,5.07,19.5,7.08,38.47,6.01,56.9-.53,9.43-1.98,18.35-4.27,26.79-2.16,8.07-5.16,15.71-8.95,22.89-7.75,14.69-19.1,25.51-34.06,32.46-19.77,9.08-37.67,13.62-53.69,13.62-20.84,0-38.2-6.81-52.09-20.43-9.91-9.72-19.02-20.89-27.27-33.47-4.89,8.57-7.32,19.58-7.32,33.02,0,10.68,1.07,22.71,3.21,36.06,1.84,11.49,3.87,23.37,6.12,35.63.35,2,.72,4.01,1.1,6.04,2.67,14.42,5.08,28.98,7.21,43.67,2.14,14.69,3.21,28.98,3.21,42.87,0,10.15-.67,19.9-2,29.25-.85,5.95-2.29,11.62-4.33,17.03-2.36,6.27-6.07,12.13-11.08,17.11-1.43,1.42-2.88,2.68-4.15,3.43l14.09-4.52c1.24-.4,2.49-.83,3.7-1.3,20.38-7.85,34.6-16.83,42.64-26.95,8.28-10.42,12.42-21.5,12.42-33.26,0-10.68-2.4-21.37-7.21-32.05-4.81-10.68-10.42-21.24-16.83-31.65-6.41-10.42-12.82-20.43-19.23-30.05-.63-.94-1.25-1.88-1.85-2.8-3.12-4.81-1.73-11.23,3.1-14.32l.09-.06c12.02-7.75,24.44-13.09,37.26-16.03,12.82-2.94,24.58-4.41,35.26-4.41,29.92,0,55.56,6.68,76.93,20.03,10.94,6.84,20.6,14.5,29.01,23,6.21,6.28,10.79,14.01,13.29,22.49.01.04.03.09.04.13,4.27,14.42,6.41,29.38,6.41,44.88,0,19.23-3.21,39-9.62,59.3-6.41,20.3-16.16,40.07-29.25,59.3-7.99,11.73-17.26,23.21-27.86,34.43-6.28,6.73-13.06,13.36-20.33,19.9-.48.45-.99.91-1.5,1.36-20.03,17.9-43.67,34.06-70.92,48.48-36.33,19.23-71.06,31.79-104.18,37.66-19.69,3.49-38.54,5.24-56.53,5.24-12.27,0-24.14-.81-35.62-2.44-28.32-4.01-53.56-12.29-75.73-24.84-22.17-12.55-39.93-27.91-53.29-46.08-20.84-27.25-31.25-57.97-31.25-92.16,0-22.44,4.54-45.14,13.62-68.12,9.08-22.97,22.71-45.01,40.87-66.11,18.16-21.1,40.74-40.87,67.72-59.3,23.27-15.89,49.63-29.92,79.07-42.02,4.67-1.95,9.46-3.82,14.29-5.66h-177.9c-9.62,22.44-18.16,45.95-25.64,70.52-5.88,20.84-11.49,44.48-16.83,70.92-5.34,26.45-8.01,53.56-8.01,81.34,0,39,7.75,73.73,23.24,104.18,15.49,30.45,36.46,56.23,62.91,77.33,26.44,21.1,57.43,37.26,92.96,48.48,35.53,11.22,73.59,16.83,114.19,16.83s78.67-6.68,114.19-20.03c35.53-13.36,66.51-31.65,92.96-54.89,26.44-23.24,47.41-50.49,62.91-81.74,7.61-15.36,13.38-31.23,17.2-47.55,4.03-16.88,6.04-34.3,6.04-52.22,0-38.47-9.08-74.26-27.25-107.38-18.16-33.12-42.47-61.71-72.92-85.75h38.46s.04,0,.06,0c3.98-.57,7.5-2.86,9.92-6.06,11.06-14.64,18.71-30.76,23.01-48.37,2.08-8.52,3.45-17.1,4.14-25.7.88-11.38.59-22.84-.93-34.41-2.67-20.3-9.08-39.93-19.23-58.9-10.15-18.97-23.51-35.79-40.07-50.49-16.56-14.69-36.33-26.45-59.3-35.26-22.97-8.81-48.88-13.22-77.73-13.22h0Z"/>
  <path class="cls-1" d="M1113.1,625.87c28.59,0,54.62,4.43,77.37,13.16,22.75,8.73,42.6,20.53,59,35.07,16.4,14.54,29.8,31.44,39.85,50.21,10.05,18.77,16.48,38.47,19.12,58.56,1.5,11.35,1.81,22.86.93,34.19-.7,8.63-2.08,17.23-4.12,25.54-4.25,17.42-11.93,33.57-22.83,48-2.38,3.15-5.66,5.16-9.26,5.67h-41.27l2.26,1.78c30.2,23.85,54.65,52.59,72.67,85.44,18,32.82,27.12,68.79,27.12,106.9,0,17.81-2.02,35.3-6.01,51.99-3.76,16.07-9.52,32-17.12,47.33-9.74,19.66-21.89,38.02-36.11,54.57l-.55.64.54.65c11.26,13.5,21.05,28.36,29.09,44.16,15.35,30.17,23.13,65.07,23.13,103.72,0,27.59-2.69,54.89-7.99,81.14-5.31,26.3-10.97,50.13-16.8,70.83-7.37,24.21-15.89,47.69-25.35,69.81h-171.87c3.46-1.35,6.48-2.57,9.29-3.74,29.32-12.05,55.99-26.22,79.25-42.12,26.92-18.39,49.77-38.4,67.91-59.47,18.15-21.09,31.96-43.43,41.04-66.4,9.09-22.98,13.69-46.02,13.69-68.48,0-34.26-10.58-65.47-31.45-92.75-6.18-8.4-13.52-16.4-21.82-23.78l-.71-.63-.67.67c-4.93,4.95-9.16,8.96-13.31,12.61-26.23,23.05-57.4,41.46-92.65,54.71-35.25,13.25-73.55,19.97-113.84,19.97s-78.63-5.65-113.89-16.78c-17.37-5.49-33.92-12.28-49.18-20.2l-.64-.33-.52.5c-4.95,4.75-8.9,8.71-12.4,12.47-10.51,11.11-19.91,22.74-27.96,34.56-13.08,19.22-22.97,39.26-29.38,59.56-6.41,20.3-9.66,40.36-9.66,59.6,0,15.52,2.17,30.71,6.45,45.16l.04.13c2.53,8.59,7.21,16.51,13.54,22.91,8.42,8.52,18.24,16.3,29.19,23.15,21.43,13.39,47.49,20.19,77.46,20.19,10.71,0,22.65-1.49,35.48-4.43,12.88-2.95,25.52-8.39,37.58-16.16l.08-.05c2.56-1.64,4.33-4.17,4.97-7.14.64-2.97.09-6.01-1.57-8.56-.6-.93-1.22-1.87-1.86-2.81-6.38-9.57-12.84-19.67-19.21-30.02-6.36-10.34-12-20.95-16.77-31.54-4.73-10.5-7.12-21.15-7.12-31.64,0-11.47,4.11-22.45,12.2-32.63,7.89-9.93,22.1-18.89,42.22-26.64,1.11-.43,2.34-.86,3.64-1.28l9.11-2.92c-.06.06-.12.12-.18.18-5.02,4.99-8.82,10.87-11.31,17.47-2.05,5.45-3.53,11.25-4.39,17.24-1.34,9.36-2.01,19.25-2.01,29.39,0,13.87,1.08,28.34,3.22,43.02,2.13,14.62,4.56,29.33,7.22,43.71l.17.91c.32,1.72.63,3.42.93,5.13,2.15,11.76,4.21,23.74,6.11,35.61,2.12,13.24,3.19,25.32,3.19,35.9,0,12.47-2.15,22.91-6.4,31.08-8.01-12.01-16.91-22.85-26.49-32.25-14.02-13.75-31.78-20.72-52.79-20.72-16.1,0-34.3,4.61-54.11,13.72-15.09,7.01-26.71,18.07-34.52,32.9-3.82,7.24-6.86,15.01-9.03,23.1-2.33,8.55-3.78,17.64-4.31,27-1.07,18.45.96,37.7,6.04,57.21,5.08,19.52,13.22,37.42,24.19,53.21,10.98,15.8,25.1,29.1,41.97,39.55,16.91,10.47,36.9,15.78,59.43,15.78,29.42,0,56.55-6.92,80.63-20.56,24-13.6,44.83-28.89,61.91-45.43,17.93-17.45,34.71-38.11,51.23-63.08v83.19c-18.25,11.49-28.22,15.45-37.03,18.95-.82.33-1.63.65-2.45.98-21.96,8.81-46.32,16.62-72.4,23.2-27.3,6.89-57.28,10.39-89.11,10.39-28.59,0-54.62-4.43-77.37-13.16-22.75-8.73-42.6-20.53-59-35.07-16.4-14.54-29.8-31.44-39.85-50.21-10.05-18.77-16.48-38.47-19.12-58.56-1.5-11.35-1.81-22.86-.93-34.19.7-8.63,2.08-17.22,4.12-25.54,4.25-17.42,11.93-33.57,22.83-48,2.37-3.14,5.65-5.16,9.26-5.67h41.28l-2.26-1.78c-30.21-23.85-54.65-52.59-72.67-85.44-18-32.82-27.12-68.79-27.12-106.9,0-17.81,2.02-35.3,6.01-51.99,3.76-16.07,9.52-32,17.12-47.33,9.74-19.65,21.89-38.01,36.11-54.57l.55-.64-.54-.65c-11.26-13.5-21.05-28.36-29.09-44.16-15.35-30.17-23.13-65.07-23.13-103.72,0-27.58,2.69-54.88,7.99-81.14,5.31-26.3,10.97-50.13,16.8-70.83,7.37-24.21,15.89-47.69,25.35-69.81h171.87c-3.46,1.35-6.49,2.57-9.29,3.74-29.32,12.05-55.99,26.22-79.25,42.12-26.93,18.39-49.77,38.4-67.91,59.47-18.15,21.09-31.96,43.43-41.04,66.4-9.09,22.98-13.69,46.02-13.69,68.48,0,34.26,10.58,65.47,31.45,92.75,6.18,8.4,13.52,16.4,21.82,23.78l.71.63.67-.67c4.93-4.95,9.16-8.96,13.31-12.61,26.23-23.05,57.4-41.46,92.65-54.71,35.25-13.25,73.55-19.97,113.84-19.97s78.63,5.65,113.89,16.78c17.38,5.49,33.92,12.28,49.19,20.2l.64.33.52-.5c4.95-4.75,8.9-8.71,12.4-12.47,10.5-11.11,19.91-22.74,27.96-34.56,13.08-19.22,22.97-39.26,29.38-59.56,6.41-20.3,9.66-40.36,9.66-59.6,0-15.52-2.17-30.71-6.45-45.16l-.04-.13c-2.53-8.59-7.21-16.51-13.54-22.91-8.42-8.51-18.24-16.3-29.19-23.15-21.43-13.39-47.49-20.19-77.46-20.19-10.71,0-22.65,1.49-35.48,4.43-12.87,2.95-25.52,8.39-37.58,16.16l-.08.05c-2.56,1.64-4.33,4.17-4.97,7.14-.64,2.97-.09,6.01,1.57,8.56.6.93,1.22,1.87,1.86,2.81,6.37,9.56,12.84,19.66,19.21,30.02,6.36,10.34,12,20.95,16.77,31.54,4.73,10.5,7.12,21.15,7.12,31.64,0,11.47-4.11,22.45-12.2,32.63-7.89,9.93-22.09,18.89-42.22,26.64-1.11.43-2.33.86-3.65,1.28l-9.11,2.92c.06-.06.12-.12.18-.18,5.02-4.99,8.82-10.87,11.31-17.47,2.05-5.45,3.53-11.25,4.39-17.24,1.34-9.35,2.01-19.24,2.01-29.39,0-13.87-1.08-28.34-3.22-43.02-2.13-14.63-4.56-29.34-7.22-43.71l-.17-.9c-.32-1.72-.63-3.42-.93-5.14-2.15-11.75-4.21-23.73-6.11-35.61-2.12-13.24-3.19-25.32-3.19-35.9,0-12.47,2.15-22.91,6.4-31.08,8,12.01,16.91,22.85,26.49,32.25,14.02,13.75,31.78,20.72,52.79,20.72,16.1,0,34.3-4.61,54.11-13.72,15.09-7.01,26.71-18.07,34.52-32.9,3.82-7.24,6.86-15.01,9.03-23.1,2.33-8.56,3.78-17.64,4.31-27,1.07-18.45-.96-37.7-6.04-57.21-5.08-19.52-13.22-37.43-24.19-53.21-10.98-15.8-25.1-29.11-41.97-39.55-16.91-10.47-36.9-15.78-59.43-15.78-29.42,0-56.55,6.92-80.63,20.56-24,13.6-44.83,28.89-61.91,45.43-17.93,17.45-34.71,38.11-51.23,63.08v-83.19c18.25-11.49,28.22-15.45,37.03-18.95.82-.33,1.63-.65,2.45-.98,21.97-8.81,46.32-16.62,72.4-23.2,27.3-6.89,57.29-10.39,89.11-10.39M957.06,1284.98c17.97,0,37.05-1.77,56.71-5.26,33.07-5.87,68.22-18.57,104.47-37.77,16.16-8.56,31.36-17.93,45.16-27.87l1.93-1.39-2.34-.41c-2.95-.51-5.42-.94-8.03-1.31-11.47-1.62-23.5-2.45-35.76-2.45-17.97,0-37.05,1.77-56.71,5.26-33.07,5.87-68.22,18.57-104.47,37.77-16.16,8.56-31.36,17.93-45.16,27.87l-1.93,1.39,2.34.41c2.45.43,5.22.91,8.03,1.31,11.47,1.62,23.5,2.45,35.76,2.45M1113.1,624.87c-32.06,0-61.84,3.47-89.35,10.42-27.51,6.95-51.6,14.85-72.52,23.24-9.83,3.94-19.8,7.48-40.1,20.3v87.08c16.03-24.57,33.16-46.48,52.93-65.71,17.1-16.56,37.66-31.65,61.71-45.28,24.04-13.62,50.75-20.43,80.14-20.43,22.44,0,42.07,5.21,58.9,15.63,16.83,10.42,30.72,23.51,41.67,39.27,10.95,15.76,18.97,33.39,24.04,52.89,5.08,19.5,7.08,38.47,6.01,56.9-.53,9.43-1.98,18.35-4.27,26.79-2.16,8.07-5.16,15.71-8.95,22.89-7.75,14.69-19.1,25.51-34.06,32.46-19.77,9.08-37.67,13.62-53.69,13.62-20.84,0-38.2-6.81-52.09-20.44-9.91-9.72-19.02-20.89-27.27-33.47-4.89,8.57-7.32,19.58-7.32,33.02,0,10.68,1.07,22.71,3.21,36.06,1.84,11.49,3.87,23.37,6.12,35.63.35,2,.72,4.01,1.1,6.04,2.67,14.42,5.08,28.98,7.21,43.67,2.14,14.69,3.21,28.98,3.21,42.87,0,10.15-.67,19.9-2,29.25-.85,5.95-2.29,11.62-4.33,17.03-2.36,6.27-6.07,12.13-11.08,17.11-1.43,1.42-2.88,2.68-4.15,3.43l14.09-4.52c1.24-.4,2.49-.83,3.7-1.3,20.38-7.85,34.6-16.83,42.64-26.95,8.28-10.42,12.42-21.5,12.42-33.26,0-10.68-2.4-21.37-7.21-32.05-4.81-10.68-10.42-21.24-16.83-31.65-6.41-10.42-12.82-20.43-19.23-30.05-.63-.94-1.25-1.88-1.85-2.8-3.12-4.81-1.73-11.23,3.1-14.32l.09-.06c12.02-7.75,24.44-13.09,37.26-16.03,12.82-2.94,24.58-4.41,35.26-4.41,29.92,0,55.56,6.68,76.93,20.03,10.94,6.84,20.6,14.5,29.01,23,6.21,6.28,10.79,14.01,13.29,22.49.01.04.03.09.04.13,4.27,14.42,6.41,29.38,6.41,44.88,0,19.23-3.21,39-9.62,59.3-6.41,20.3-16.16,40.07-29.25,59.3-7.99,11.73-17.26,23.21-27.86,34.43-3.91,4.19-8.08,8.32-12.37,12.44-15.34-7.96-31.78-14.72-49.34-20.27-35.53-11.22-73.59-16.83-114.19-16.83s-78.67,6.68-114.19,20.03c-35.53,13.36-66.51,31.65-92.96,54.89-4.64,4.08-9.05,8.33-13.36,12.65-8.18-7.27-15.43-15.13-21.68-23.63-20.84-27.25-31.25-57.97-31.25-92.16,0-22.44,4.54-45.14,13.62-68.12,9.08-22.97,22.71-45.01,40.87-66.11,18.16-21.1,40.74-40.87,67.72-59.3,23.27-15.89,49.63-29.92,79.07-42.02,4.67-1.95,9.46-3.82,14.29-5.66h-177.9c-9.62,22.44-18.16,45.94-25.64,70.52-5.88,20.84-11.49,44.48-16.83,70.92-5.34,26.45-8.01,53.56-8.01,81.34,0,39,7.75,73.73,23.24,104.18,8.19,16.1,17.96,30.86,29.22,44.35-14.29,16.64-26.39,34.89-36.25,54.78-7.61,15.36-13.38,31.23-17.2,47.55-4.03,16.88-6.04,34.3-6.04,52.22,0,38.47,9.08,74.26,27.25,107.38,18.16,33.12,42.47,61.71,72.92,85.75h-38.46s-.04,0-.06,0c-3.98.57-7.5,2.86-9.92,6.06-11.06,14.64-18.71,30.76-23.01,48.37-2.08,8.52-3.45,17.1-4.14,25.7-.88,11.38-.59,22.84.94,34.41,2.67,20.3,9.08,39.93,19.23,58.9,10.15,18.97,23.51,35.79,40.07,50.49s36.33,26.45,59.3,35.26c22.97,8.82,48.88,13.22,77.73,13.22,32.05,0,61.84-3.47,89.35-10.42,27.51-6.95,51.6-14.85,72.52-23.24,9.83-3.94,19.8-7.48,40.1-20.3v-87.08c-16.03,24.58-33.16,46.48-52.93,65.71-17.1,16.56-37.66,31.65-61.71,45.28-24.04,13.62-50.75,20.43-80.14,20.43-22.44,0-42.07-5.21-58.9-15.63s-30.72-23.51-41.67-39.27c-10.95-15.76-18.97-33.39-24.04-52.89-5.07-19.5-7.08-38.47-6.01-56.9.53-9.43,1.98-18.35,4.27-26.79,2.16-8.07,5.16-15.71,8.95-22.89,7.75-14.69,19.1-25.51,34.06-32.46,19.77-9.08,37.67-13.62,53.69-13.62,20.83,0,38.2,6.81,52.09,20.43,9.91,9.72,19.02,20.89,27.27,33.47,4.89-8.57,7.32-19.58,7.32-33.02,0-10.68-1.07-22.71-3.21-36.06-1.84-11.49-3.87-23.37-6.12-35.63-.35-2-.72-4.01-1.1-6.04-2.67-14.42-5.08-28.98-7.21-43.67-2.14-14.69-3.21-28.98-3.21-42.87,0-10.15.67-19.9,2-29.25.85-5.95,2.29-11.62,4.33-17.03,2.36-6.27,6.07-12.13,11.08-17.11,1.43-1.42,2.88-2.68,4.15-3.43l-14.09,4.52c-1.24.4-2.49.83-3.7,1.3-20.38,7.85-34.6,16.83-42.64,26.95-8.28,10.42-12.42,21.5-12.42,33.26,0,10.68,2.4,21.37,7.21,32.05,4.81,10.68,10.42,21.24,16.83,31.65,6.41,10.42,12.82,20.43,19.23,30.05.63.94,1.25,1.88,1.85,2.8,3.12,4.81,1.73,11.23-3.1,14.32l-.09.06c-12.02,7.75-24.44,13.09-37.26,16.03-12.82,2.94-24.58,4.41-35.26,4.41-29.92,0-55.56-6.68-76.93-20.03-10.94-6.84-20.6-14.5-29.01-23-6.21-6.28-10.79-14.01-13.29-22.49-.01-.04-.03-.09-.04-.13-4.27-14.42-6.41-29.38-6.41-44.88,0-19.23,3.21-39,9.62-59.3,6.41-20.3,16.16-40.07,29.25-59.3,7.99-11.73,17.26-23.21,27.86-34.43,3.91-4.19,8.08-8.32,12.37-12.44,15.34,7.96,31.78,14.72,49.34,20.27,35.53,11.22,73.59,16.83,114.19,16.83s78.67-6.68,114.2-20.03c35.53-13.36,66.51-31.65,92.96-54.89,4.64-4.08,9.05-8.33,13.36-12.65,8.18,7.27,15.43,15.13,21.68,23.63,20.84,27.25,31.25,57.97,31.25,92.16,0,22.44-4.54,45.14-13.62,68.12-9.08,22.97-22.71,45.01-40.87,66.11-18.17,21.1-40.74,40.87-67.72,59.3-23.27,15.89-49.63,29.92-79.07,42.02-4.67,1.95-9.46,3.82-14.29,5.66h177.9c9.62-22.44,18.16-45.94,25.64-70.52,5.88-20.84,11.49-44.48,16.83-70.92,5.34-26.45,8.01-53.56,8.01-81.34,0-39-7.75-73.73-23.24-104.18-8.19-16.1-17.96-30.86-29.22-44.35,14.29-16.64,26.39-34.89,36.25-54.78,7.61-15.36,13.38-31.23,17.2-47.55,4.03-16.88,6.04-34.3,6.04-52.22,0-38.47-9.08-74.26-27.25-107.38-18.16-33.12-42.47-61.71-72.92-85.75h38.46s.04,0,.06,0c3.98-.57,7.5-2.86,9.92-6.06,11.06-14.64,18.71-30.76,23.01-48.37,2.08-8.52,3.45-17.1,4.14-25.7.88-11.38.59-22.84-.93-34.41-2.67-20.3-9.08-39.93-19.23-58.9-10.15-18.97-23.51-35.79-40.07-50.49-16.56-14.69-36.33-26.45-59.3-35.26-22.97-8.81-48.88-13.22-77.73-13.22h0ZM957.06,1283.98c-12.27,0-24.14-.81-35.62-2.44-2.7-.38-5.35-.84-8-1.3,13.73-9.88,28.73-19.16,45.04-27.8,36.33-19.23,71.06-31.79,104.18-37.66,19.69-3.49,38.54-5.24,56.54-5.24,12.27,0,24.14.81,35.62,2.44,2.7.38,5.35.84,8,1.3-13.73,9.88-28.73,19.16-45.04,27.8-36.33,19.23-71.06,31.79-104.18,37.66-19.69,3.49-38.54,5.24-56.54,5.24h0Z"/>
  <path class="cls-1" d="M1041.64,96.43c40.31,0,78.63,5.65,113.89,16.78,35.24,11.13,66.41,27.38,92.64,48.31,26.21,20.91,47.28,46.82,62.64,77,15.35,30.17,23.13,65.07,23.13,103.72,0,27.59-2.69,54.89-7.99,81.14-5.31,26.3-10.97,50.13-16.8,70.83-7.37,24.2-15.89,47.69-25.35,69.81h-171.87c3.46-1.35,6.49-2.57,9.3-3.74,29.32-12.05,55.98-26.22,79.25-42.12,26.93-18.39,49.77-38.4,67.91-59.47,18.15-21.09,31.96-43.43,41.04-66.4,9.09-22.98,13.69-46.02,13.69-68.48,0-34.26-10.58-65.47-31.45-92.75-13.38-18.19-31.41-33.79-53.6-46.36-22.18-12.56-47.78-20.96-76.08-24.96-11.47-1.62-23.5-2.45-35.76-2.45-17.97,0-37.05,1.77-56.71,5.26-33.07,5.87-68.22,18.57-104.47,37.77-27.19,14.4-51.12,30.75-71.14,48.64-.51.46-1.02.91-1.48,1.35-7.36,6.63-14.22,13.34-20.38,19.96-10.5,11.11-19.91,22.74-27.96,34.56-13.08,19.22-22.97,39.26-29.38,59.56-6.41,20.3-9.66,40.36-9.66,59.6,0,15.52,2.17,30.71,6.45,45.15l.04.14c2.53,8.59,7.21,16.51,13.54,22.91,8.42,8.51,18.24,16.3,29.19,23.15,21.43,13.39,47.49,20.19,77.46,20.19,10.71,0,22.65-1.49,35.48-4.43,12.87-2.95,25.52-8.39,37.58-16.16l.09-.06c2.56-1.64,4.33-4.17,4.97-7.14.64-2.97.09-6.01-1.57-8.56-.6-.93-1.22-1.87-1.86-2.81-6.38-9.56-12.84-19.66-19.21-30.02-6.36-10.34-12-20.95-16.77-31.54-4.73-10.5-7.12-21.15-7.12-31.64,0-11.47,4.11-22.45,12.2-32.63,7.89-9.93,22.09-18.89,42.22-26.64,1.1-.42,2.33-.85,3.65-1.28l9.11-2.92c-.06.06-.12.12-.18.18-5.02,4.99-8.82,10.87-11.31,17.47-2.05,5.45-3.53,11.25-4.39,17.24-1.34,9.36-2.01,19.25-2.01,29.39,0,13.87,1.08,28.34,3.22,43.02,2.13,14.62,4.56,29.33,7.22,43.71l.15.8c.32,1.75.64,3.49.95,5.23,2.15,11.75,4.21,23.73,6.11,35.61,2.12,13.24,3.19,25.32,3.19,35.9,0,12.47-2.15,22.91-6.4,31.08-8.01-12.01-16.91-22.85-26.49-32.25-14.02-13.75-31.78-20.72-52.79-20.72-16.1,0-34.3,4.61-54.11,13.72-15.09,7.01-26.71,18.07-34.52,32.9-3.82,7.24-6.86,15.01-9.03,23.1-2.33,8.55-3.78,17.64-4.31,27-1.07,18.45.96,37.7,6.04,57.21,5.08,19.52,13.22,37.42,24.19,53.21,10.98,15.8,25.1,29.1,41.97,39.55,16.91,10.47,36.9,15.78,59.43,15.78,29.42,0,56.55-6.92,80.63-20.56,24-13.6,44.83-28.89,61.91-45.43,17.93-17.45,34.71-38.11,51.23-63.08v83.19c-18.25,11.49-28.22,15.45-37.03,18.95-.82.33-1.63.65-2.45.97-21.97,8.81-46.32,16.62-72.4,23.2-27.3,6.89-57.29,10.39-89.11,10.39-28.59,0-54.62-4.43-77.37-13.16-22.75-8.73-42.6-20.53-59-35.07-16.4-14.54-29.8-31.44-39.85-50.21-10.05-18.77-16.48-38.47-19.12-58.56-1.5-11.35-1.81-22.86-.93-34.19.7-8.63,2.08-17.22,4.12-25.54,4.25-17.42,11.93-33.57,22.83-48,2.38-3.15,5.66-5.16,9.26-5.67h41.27l-2.26-1.78c-30.2-23.85-54.65-52.59-72.67-85.44-18-32.82-27.12-68.79-27.12-106.9,0-17.81,2.02-35.3,6.01-51.99,3.76-16.07,9.52-32,17.12-47.33,15.36-30.99,36.45-58.39,62.67-81.43,26.23-23.05,57.4-41.46,92.65-54.71,35.25-13.25,73.55-19.97,113.84-19.97M1041.64,95.43c-40.6,0-78.67,6.68-114.19,20.03s-66.51,31.65-92.96,54.89c-26.44,23.24-47.41,50.49-62.91,81.74-7.61,15.36-13.38,31.23-17.2,47.55-4.03,16.88-6.04,34.3-6.04,52.22,0,38.47,9.08,74.26,27.25,107.38,18.16,33.12,42.47,61.71,72.92,85.75h-38.46s-.04,0-.06,0c-3.98.57-7.5,2.86-9.92,6.06-11.06,14.64-18.71,30.76-23.01,48.37-2.08,8.52-3.45,17.1-4.14,25.7-.88,11.38-.59,22.84.93,34.41,2.67,20.3,9.08,39.93,19.23,58.9,10.15,18.97,23.51,35.79,40.07,50.49,16.56,14.69,36.33,26.45,59.3,35.26,22.97,8.81,48.88,13.22,77.73,13.22,32.06,0,61.84-3.47,89.35-10.42,27.51-6.95,51.6-14.85,72.52-23.24,9.83-3.94,19.8-7.48,40.1-20.3v-87.08c-16.03,24.57-33.16,46.48-52.93,65.71-17.1,16.56-37.66,31.65-61.71,45.28-24.04,13.62-50.75,20.43-80.14,20.43-22.44,0-42.07-5.21-58.9-15.63-16.83-10.42-30.72-23.51-41.67-39.27-10.95-15.76-18.97-33.39-24.04-52.89-5.07-19.5-7.08-38.47-6.01-56.9.53-9.43,1.98-18.35,4.27-26.79,2.16-8.07,5.16-15.71,8.95-22.89,7.75-14.69,19.1-25.51,34.06-32.46,19.77-9.08,37.67-13.62,53.69-13.62,20.84,0,38.2,6.81,52.09,20.43,9.91,9.72,19.02,20.89,27.27,33.47,4.89-8.57,7.32-19.58,7.32-33.02,0-10.68-1.07-22.71-3.21-36.06-1.84-11.49-3.87-23.37-6.12-35.63-.35-2-.72-4.01-1.1-6.04-2.67-14.42-5.08-28.98-7.21-43.67-2.14-14.69-3.21-28.98-3.21-42.87,0-10.15.67-19.9,2-29.25.85-5.95,2.29-11.62,4.33-17.03,2.36-6.27,6.07-12.13,11.08-17.11,1.43-1.42,2.88-2.68,4.15-3.43l-14.09,4.52c-1.24.4-2.49.83-3.7,1.3-20.38,7.85-34.6,16.83-42.64,26.95-8.28,10.42-12.42,21.5-12.42,33.26,0,10.68,2.4,21.37,7.21,32.05,4.81,10.68,10.42,21.24,16.83,31.65,6.41,10.42,12.82,20.43,19.23,30.05.63.94,1.25,1.88,1.85,2.8,3.12,4.81,1.73,11.23-3.1,14.32l-.09.06c-12.02,7.75-24.44,13.09-37.26,16.03-12.82,2.94-24.58,4.41-35.26,4.41-29.92,0-55.56-6.68-76.93-20.03-10.94-6.84-20.6-14.5-29.01-23-6.21-6.28-10.79-14.01-13.29-22.49-.01-.04-.03-.09-.04-.13-4.27-14.42-6.41-29.38-6.41-44.88,0-19.23,3.21-39,9.62-59.3,6.41-20.3,16.16-40.07,29.25-59.3,7.99-11.73,17.26-23.21,27.86-34.43,6.28-6.73,13.06-13.36,20.33-19.9.48-.45.99-.91,1.5-1.36,20.03-17.9,43.67-34.06,70.92-48.48,36.33-19.23,71.06-31.79,104.18-37.66,19.69-3.49,38.54-5.24,56.54-5.24,12.27,0,24.14.81,35.62,2.44,28.32,4.01,53.56,12.29,75.73,24.84,22.17,12.55,39.93,27.91,53.29,46.08,20.84,27.25,31.25,57.97,31.25,92.16,0,22.44-4.54,45.14-13.62,68.12-9.08,22.97-22.71,45.01-40.87,66.11-18.16,21.1-40.74,40.87-67.72,59.3-23.27,15.89-49.63,29.92-79.07,42.02-4.67,1.95-9.46,3.82-14.29,5.66h177.9c9.62-22.44,18.16-45.95,25.64-70.52,5.88-20.84,11.49-44.48,16.83-70.92,5.34-26.45,8.01-53.56,8.01-81.34,0-39-7.75-73.73-23.24-104.18-15.49-30.45-36.46-56.23-62.91-77.33-26.44-21.1-57.43-37.26-92.96-48.48-35.53-11.22-73.59-16.83-114.2-16.83h0Z"/>
  <path class="cls-1" d="M1106.07,1677.11c28.59,0,54.62,4.43,77.37,13.16,22.75,8.73,42.6,20.53,59,35.07,16.4,14.54,29.8,31.44,39.85,50.21,10.05,18.77,16.48,38.47,19.12,58.56,1.5,11.35,1.81,22.86.93,34.19-.7,8.63-2.08,17.23-4.12,25.54-4.25,17.42-11.93,33.57-22.83,48-2.38,3.15-5.66,5.16-9.25,5.67h-41.28l2.26,1.78c30.2,23.85,54.65,52.59,72.67,85.44,18,32.82,27.12,68.79,27.12,106.9,0,17.81-2.02,35.3-6.01,51.99-3.76,16.07-9.52,32-17.12,47.33-15.36,30.99-36.45,58.39-62.67,81.43-26.23,23.05-57.4,41.46-92.65,54.71-35.25,13.25-73.55,19.97-113.84,19.97s-78.63-5.65-113.89-16.78c-35.24-11.13-66.41-27.38-92.64-48.31-26.21-20.91-47.28-46.82-62.64-77-15.35-30.17-23.13-65.07-23.13-103.72,0-27.58,2.69-54.88,7.99-81.14,5.31-26.29,10.97-50.13,16.8-70.83,7.37-24.21,15.89-47.69,25.35-69.81h171.87c-3.46,1.35-6.49,2.57-9.3,3.74-29.32,12.05-55.99,26.22-79.25,42.12-26.93,18.39-49.77,38.4-67.91,59.47-18.15,21.09-31.96,43.43-41.04,66.4-9.09,22.98-13.69,46.02-13.69,68.48,0,34.26,10.58,65.47,31.45,92.75,13.38,18.19,31.41,33.79,53.6,46.36,22.18,12.56,47.78,20.96,76.08,24.96,11.47,1.62,23.5,2.45,35.76,2.45,17.97,0,37.05-1.77,56.71-5.26,33.07-5.87,68.22-18.57,104.47-37.77,27.19-14.4,51.12-30.75,71.12-48.62l.04-.03h0c.5-.45,1-.9,1.46-1.33,7.36-6.63,14.22-13.34,20.38-19.96,10.51-11.12,19.91-22.74,27.96-34.56,13.08-19.22,22.97-39.26,29.38-59.56,6.41-20.3,9.66-40.36,9.66-59.6,0-15.52-2.17-30.71-6.45-45.16l-.04-.13c-2.53-8.59-7.21-16.51-13.54-22.91-8.42-8.51-18.24-16.3-29.19-23.15-21.43-13.39-47.49-20.19-77.46-20.19-10.71,0-22.65,1.49-35.48,4.43-12.88,2.95-25.52,8.39-37.58,16.16l-.09.06c-2.56,1.64-4.33,4.17-4.97,7.14-.64,2.97-.09,6.01,1.57,8.56.6.93,1.22,1.87,1.86,2.81,6.38,9.57,12.85,19.67,19.21,30.02,6.36,10.34,12,20.95,16.77,31.54,4.73,10.51,7.12,21.15,7.12,31.64,0,11.47-4.11,22.45-12.2,32.63-7.89,9.93-22.1,18.89-42.22,26.64-1.1.42-2.33.85-3.65,1.28l-9.11,2.92c.06-.06.12-.12.18-.18,5.02-4.99,8.82-10.87,11.31-17.47,2.05-5.45,3.53-11.25,4.39-17.24,1.34-9.35,2.01-19.24,2.01-29.39,0-13.87-1.08-28.34-3.22-43.02-2.13-14.63-4.56-29.34-7.22-43.71l-.16-.88c-.32-1.73-.63-3.44-.93-5.16-2.15-11.73-4.2-23.71-6.11-35.61-2.12-13.24-3.19-25.32-3.19-35.9,0-12.47,2.15-22.91,6.4-31.08,8,12.01,16.91,22.85,26.49,32.25,14.02,13.75,31.78,20.72,52.79,20.72,16.1,0,34.3-4.61,54.11-13.72,15.09-7.01,26.71-18.07,34.52-32.9,3.82-7.24,6.86-15.01,9.03-23.1,2.33-8.55,3.78-17.64,4.31-27,1.07-18.45-.96-37.7-6.04-57.21-5.08-19.52-13.22-37.43-24.19-53.21-10.98-15.8-25.1-29.1-41.97-39.55-16.91-10.47-36.9-15.78-59.43-15.78-29.42,0-56.55,6.92-80.63,20.56-24,13.6-44.83,28.89-61.91,45.43-17.93,17.45-34.71,38.11-51.23,63.08v-83.19c18.25-11.49,28.22-15.45,37.03-18.95.82-.33,1.63-.65,2.45-.97,21.96-8.81,46.32-16.62,72.4-23.2,27.3-6.89,57.29-10.39,89.11-10.39M1106.07,1676.11c-32.06,0-61.84,3.47-89.35,10.42-27.51,6.95-51.6,14.85-72.52,23.24-9.83,3.94-19.8,7.48-40.1,20.3v87.08c16.03-24.58,33.16-46.48,52.93-65.71,17.1-16.56,37.66-31.65,61.71-45.28,24.04-13.62,50.75-20.43,80.14-20.43,22.44,0,42.07,5.21,58.9,15.63,16.83,10.42,30.72,23.51,41.67,39.27,10.95,15.76,18.97,33.39,24.04,52.89,5.07,19.5,7.08,38.47,6.01,56.9-.53,9.43-1.98,18.35-4.27,26.79-2.16,8.07-5.16,15.71-8.95,22.89-7.75,14.69-19.1,25.51-34.06,32.46-19.77,9.08-37.67,13.62-53.69,13.62-20.84,0-38.2-6.81-52.09-20.43-9.91-9.72-19.02-20.89-27.27-33.47-4.89,8.57-7.32,19.58-7.32,33.02,0,10.68,1.07,22.71,3.21,36.06,1.84,11.49,3.87,23.37,6.12,35.63.35,2,.72,4.01,1.1,6.04,2.67,14.42,5.08,28.98,7.21,43.67,2.14,14.69,3.21,28.98,3.21,42.87,0,10.15-.67,19.9-2,29.25-.85,5.95-2.29,11.62-4.33,17.03-2.36,6.27-6.07,12.13-11.08,17.11-1.43,1.42-2.88,2.68-4.15,3.43l14.09-4.52c1.24-.4,2.49-.83,3.7-1.3,20.38-7.85,34.6-16.83,42.64-26.95,8.28-10.42,12.42-21.5,12.42-33.26,0-10.68-2.4-21.37-7.21-32.05-4.81-10.68-10.42-21.24-16.83-31.65-6.41-10.42-12.82-20.43-19.23-30.05-.63-.94-1.25-1.88-1.85-2.8-3.12-4.81-1.73-11.23,3.1-14.32l.09-.06c12.02-7.75,24.44-13.09,37.26-16.03,12.82-2.94,24.58-4.41,35.26-4.41,29.92,0,55.56,6.68,76.93,20.03,10.94,6.84,20.6,14.5,29.01,23,6.21,6.28,10.79,14.01,13.29,22.49.01.04.03.09.04.13,4.27,14.42,6.41,29.38,6.41,44.88,0,19.23-3.21,39-9.62,59.3-6.41,20.3-16.16,40.07-29.25,59.3-7.99,11.73-17.26,23.21-27.86,34.43-6.28,6.73-13.06,13.36-20.33,19.9-.48.45-.99.91-1.5,1.36-20.03,17.9-43.68,34.06-70.92,48.48-36.33,19.23-71.06,31.79-104.18,37.66-19.69,3.49-38.54,5.24-56.53,5.24-12.27,0-24.14-.81-35.62-2.44-28.31-4.01-53.56-12.29-75.73-24.84-22.17-12.55-39.93-27.91-53.29-46.08-20.84-27.25-31.25-57.97-31.25-92.16,0-22.44,4.54-45.14,13.62-68.12,9.08-22.97,22.71-45.01,40.87-66.11,18.16-21.1,40.74-40.87,67.72-59.3,23.27-15.89,49.63-29.92,79.07-42.02,4.67-1.95,9.46-3.82,14.29-5.66h-177.9c-9.62,22.44-18.16,45.95-25.64,70.52-5.88,20.84-11.49,44.48-16.83,70.92-5.34,26.45-8.01,53.56-8.01,81.34,0,39,7.75,73.73,23.24,104.18,15.49,30.45,36.46,56.23,62.91,77.33,26.44,21.1,57.43,37.26,92.96,48.48,35.53,11.22,73.59,16.83,114.19,16.83s78.67-6.68,114.19-20.03c35.53-13.36,66.51-31.65,92.96-54.89,26.44-23.24,47.41-50.49,62.91-81.74,7.61-15.36,13.38-31.23,17.2-47.55,4.03-16.88,6.04-34.3,6.04-52.22,0-38.47-9.08-74.26-27.25-107.38-18.16-33.12-42.47-61.71-72.92-85.75h38.46s.04,0,.06,0c3.98-.57,7.5-2.86,9.92-6.06,11.06-14.64,18.71-30.76,23.01-48.37,2.08-8.52,3.45-17.1,4.14-25.7.88-11.38.59-22.84-.93-34.41-2.67-20.3-9.08-39.93-19.23-58.9-10.15-18.97-23.51-35.79-40.07-50.49-16.56-14.69-36.33-26.45-59.3-35.26-22.97-8.81-48.88-13.22-77.73-13.22h0Z"/>
  <path class="cls-1" d="M1765.83,625.87c28.59,0,54.62,4.43,77.37,13.16,22.75,8.73,42.6,20.53,59,35.07,16.4,14.54,29.8,31.44,39.85,50.21,10.05,18.77,16.48,38.47,19.12,58.56,1.49,11.35,1.81,22.86.93,34.19-.7,8.63-2.08,17.23-4.11,25.54-4.25,17.42-11.93,33.57-22.83,48-2.38,3.15-5.66,5.16-9.26,5.67h-41.27l2.26,1.78c30.2,23.85,54.65,52.59,72.67,85.44,18,32.82,27.12,68.79,27.12,106.9,0,17.81-2.02,35.3-6.01,51.99-3.76,16.07-9.52,32-17.12,47.33-9.74,19.66-21.89,38.02-36.11,54.57l-.55.64.54.65c11.26,13.5,21.05,28.36,29.09,44.16,15.35,30.17,23.13,65.07,23.13,103.72,0,27.59-2.69,54.88-7.99,81.14-5.31,26.29-10.97,50.13-16.8,70.83-7.37,24.21-15.89,47.69-25.35,69.81h-171.87c3.46-1.35,6.48-2.57,9.29-3.74,29.32-12.05,55.99-26.22,79.25-42.12,26.93-18.39,49.77-38.4,67.91-59.47,18.15-21.09,31.96-43.43,41.04-66.4,9.09-22.98,13.69-46.02,13.69-68.48,0-34.26-10.58-65.47-31.45-92.75-6.18-8.4-13.52-16.4-21.82-23.78l-.71-.63-.67.67c-4.92,4.95-9.15,8.96-13.31,12.61-26.23,23.05-57.4,41.46-92.65,54.71-35.25,13.25-73.55,19.97-113.84,19.97s-78.63-5.65-113.89-16.78c-17.37-5.49-33.92-12.28-49.18-20.2l-.64-.33-.52.5c-4.95,4.74-8.89,8.71-12.4,12.47-10.51,11.11-19.91,22.74-27.96,34.56-13.08,19.22-22.97,39.26-29.38,59.56-6.41,20.3-9.66,40.36-9.66,59.6,0,15.52,2.17,30.71,6.45,45.16l.04.13c2.53,8.59,7.21,16.51,13.54,22.91,8.42,8.52,18.24,16.3,29.19,23.15,21.43,13.39,47.49,20.19,77.46,20.19,10.71,0,22.65-1.49,35.48-4.43,12.88-2.95,25.52-8.39,37.58-16.16l.09-.06c2.56-1.64,4.33-4.17,4.97-7.14.64-2.97.09-6.01-1.57-8.56-.6-.93-1.22-1.87-1.86-2.81-6.38-9.57-12.85-19.67-19.21-30.02-6.36-10.34-12-20.95-16.77-31.54-4.73-10.51-7.12-21.15-7.12-31.64,0-11.47,4.11-22.45,12.2-32.63,7.89-9.93,22.1-18.89,42.22-26.64,1.11-.43,2.34-.86,3.65-1.28l9.11-2.92c-.06.06-.12.12-.18.18-5.02,4.99-8.82,10.87-11.31,17.47-2.05,5.45-3.53,11.25-4.39,17.24-1.34,9.35-2.01,19.24-2.01,29.39,0,13.87,1.08,28.34,3.22,43.02,2.13,14.62,4.56,29.33,7.22,43.71l.16.87c.32,1.73.64,3.44.93,5.17,2.15,11.75,4.21,23.73,6.11,35.61,2.12,13.24,3.19,25.32,3.19,35.9,0,12.47-2.15,22.91-6.4,31.08-8.01-12.01-16.91-22.85-26.49-32.25-14.02-13.75-31.78-20.72-52.79-20.72-16.1,0-34.3,4.61-54.11,13.72-15.09,7.01-26.71,18.07-34.52,32.9-3.82,7.24-6.86,15.01-9.03,23.1-2.33,8.55-3.78,17.64-4.31,27-1.07,18.45.96,37.7,6.04,57.21,5.08,19.52,13.22,37.43,24.19,53.21,10.98,15.8,25.1,29.1,41.97,39.55,16.91,10.47,36.9,15.78,59.43,15.78,29.42,0,56.55-6.92,80.63-20.56,24-13.6,44.83-28.89,61.91-45.43,17.93-17.45,34.71-38.11,51.23-63.08v83.19c-18.25,11.49-28.22,15.45-37.03,18.95-.82.33-1.64.65-2.45.98-21.96,8.81-46.32,16.62-72.4,23.2-27.3,6.89-57.28,10.39-89.11,10.39-28.59,0-54.62-4.43-77.37-13.16-22.75-8.73-42.6-20.53-59-35.07s-29.8-31.44-39.85-50.21c-10.05-18.77-16.48-38.47-19.12-58.56-1.5-11.35-1.81-22.86-.93-34.19.7-8.63,2.08-17.22,4.11-25.54,4.25-17.42,11.93-33.57,22.83-48,2.37-3.14,5.66-5.16,9.26-5.67h41.27l-2.26-1.78c-30.21-23.85-54.65-52.59-72.67-85.44-18-32.82-27.12-68.79-27.12-106.9,0-17.81,2.02-35.3,6.01-51.99,3.76-16.07,9.52-32,17.12-47.33,9.74-19.66,21.89-38.02,36.11-54.57l.55-.64-.54-.65c-11.26-13.5-21.05-28.36-29.09-44.16-15.35-30.17-23.13-65.07-23.13-103.72,0-27.59,2.69-54.89,7.99-81.14,5.31-26.3,10.97-50.14,16.8-70.83,7.37-24.2,15.89-47.68,25.35-69.81h171.87c-3.46,1.35-6.49,2.57-9.29,3.74-29.32,12.05-55.98,26.22-79.25,42.12-26.93,18.39-49.77,38.4-67.91,59.47-18.15,21.09-31.96,43.43-41.04,66.4-9.09,22.98-13.69,46.02-13.69,68.48,0,34.26,10.58,65.47,31.45,92.75,6.18,8.4,13.52,16.4,21.82,23.78l.71.63.67-.67c4.93-4.95,9.16-8.96,13.31-12.61,26.23-23.05,57.4-41.46,92.65-54.71,35.25-13.25,73.55-19.97,113.84-19.97s78.63,5.65,113.89,16.78c17.37,5.49,33.92,12.28,49.18,20.2l.64.33.52-.5c4.95-4.75,8.9-8.71,12.4-12.47,10.51-11.11,19.91-22.74,27.96-34.56,13.08-19.22,22.97-39.26,29.38-59.56,6.41-20.3,9.66-40.36,9.66-59.6,0-15.52-2.17-30.71-6.45-45.16l-.02-.07-.02-.06c-2.53-8.59-7.21-16.51-13.54-22.91-8.42-8.51-18.24-16.3-29.19-23.15-21.43-13.39-47.49-20.19-77.46-20.19-10.71,0-22.65,1.49-35.48,4.43-12.87,2.95-25.52,8.39-37.58,16.16l-.09.05c-2.56,1.64-4.33,4.17-4.97,7.14-.64,2.97-.09,6.01,1.57,8.56.6.93,1.22,1.87,1.86,2.81,6.38,9.57,12.84,19.67,19.21,30.02,6.36,10.34,12,20.95,16.77,31.54,4.73,10.5,7.12,21.15,7.12,31.64,0,11.47-4.11,22.45-12.2,32.63-7.89,9.93-22.1,18.89-42.22,26.64-1.1.43-2.33.85-3.64,1.28l-9.11,2.92c.06-.06.12-.12.18-.18,5.02-4.99,8.82-10.87,11.31-17.47,2.05-5.45,3.53-11.25,4.39-17.24,1.34-9.36,2.01-19.24,2.01-29.39,0-13.87-1.08-28.34-3.22-43.02-2.13-14.63-4.56-29.34-7.22-43.71l-.16-.85c-.32-1.74-.64-3.46-.94-5.19-2.15-11.75-4.21-23.73-6.11-35.61-2.12-13.24-3.19-25.32-3.19-35.9,0-12.47,2.15-22.91,6.4-31.08,8.01,12.01,16.91,22.85,26.49,32.25,14.02,13.75,31.78,20.72,52.79,20.72,16.1,0,34.3-4.61,54.11-13.72,15.09-7.01,26.71-18.07,34.52-32.9,3.82-7.24,6.86-15.01,9.03-23.1,2.33-8.56,3.78-17.64,4.31-27,1.07-18.45-.96-37.7-6.04-57.21-5.08-19.52-13.22-37.42-24.19-53.21-10.98-15.8-25.1-29.1-41.97-39.55-16.91-10.47-36.9-15.78-59.43-15.78-29.42,0-56.55,6.92-80.63,20.56-24,13.6-44.83,28.89-61.91,45.43-17.93,17.45-34.71,38.11-51.23,63.08v-83.19c18.25-11.49,28.22-15.45,37.03-18.95.82-.33,1.63-.65,2.45-.98,21.97-8.81,46.32-16.62,72.4-23.2,27.3-6.89,57.28-10.39,89.11-10.39M1609.79,1284.98c17.97,0,37.05-1.77,56.71-5.26,33.07-5.87,68.22-18.57,104.47-37.77,16.16-8.56,31.36-17.93,45.16-27.87l1.93-1.39-2.34-.41c-2.95-.51-5.42-.94-8.03-1.31-11.47-1.62-23.5-2.45-35.76-2.45-17.97,0-37.05,1.77-56.71,5.26-33.07,5.87-68.22,18.57-104.47,37.77-16.16,8.56-31.36,17.93-45.16,27.87l-1.93,1.39,2.34.41c2.45.43,5.22.91,8.03,1.31,11.47,1.62,23.5,2.45,35.76,2.45M1765.83,624.87c-32.05,0-61.84,3.47-89.35,10.42-27.51,6.95-51.6,14.85-72.52,23.24-9.83,3.94-19.8,7.48-40.1,20.3v87.08c16.03-24.57,33.16-46.48,52.93-65.71,17.1-16.56,37.66-31.65,61.71-45.28,24.04-13.62,50.75-20.43,80.14-20.43,22.44,0,42.07,5.21,58.9,15.63,16.83,10.42,30.72,23.51,41.67,39.27,10.95,15.76,18.97,33.39,24.04,52.89,5.08,19.5,7.08,38.47,6.01,56.9-.53,9.43-1.98,18.35-4.27,26.79-2.16,8.07-5.16,15.71-8.95,22.89-7.75,14.69-19.1,25.51-34.06,32.46-19.77,9.08-37.67,13.62-53.69,13.62-20.84,0-38.2-6.81-52.09-20.44-9.91-9.72-19.02-20.89-27.27-33.47-4.89,8.57-7.32,19.58-7.32,33.02,0,10.68,1.07,22.71,3.21,36.06,1.84,11.49,3.87,23.37,6.12,35.63.35,2,.72,4.01,1.1,6.04,2.67,14.42,5.08,28.98,7.21,43.67,2.14,14.69,3.21,28.98,3.21,42.87,0,10.15-.67,19.9-2,29.25-.85,5.95-2.29,11.62-4.33,17.03-2.36,6.27-6.07,12.13-11.08,17.11-1.43,1.42-2.88,2.68-4.15,3.43l14.09-4.52c1.24-.4,2.49-.83,3.7-1.3,20.38-7.85,34.6-16.83,42.64-26.95,8.28-10.42,12.42-21.5,12.42-33.26,0-10.68-2.4-21.37-7.21-32.05-4.81-10.68-10.42-21.24-16.83-31.65-6.41-10.42-12.82-20.43-19.23-30.05-.63-.94-1.25-1.88-1.85-2.8-3.12-4.81-1.73-11.23,3.1-14.32l.09-.06c12.02-7.75,24.44-13.09,37.26-16.03,12.82-2.94,24.58-4.41,35.26-4.41,29.92,0,55.56,6.68,76.93,20.03,10.94,6.84,20.6,14.5,29.01,23,6.21,6.28,10.79,14.01,13.29,22.49.01.04.03.09.04.13,4.27,14.42,6.41,29.38,6.41,44.88,0,19.23-3.21,39-9.62,59.3-6.41,20.3-16.16,40.07-29.25,59.3-7.99,11.73-17.26,23.21-27.86,34.43-3.91,4.19-8.08,8.32-12.37,12.44-15.34-7.96-31.78-14.72-49.34-20.27-35.53-11.22-73.59-16.83-114.2-16.83s-78.67,6.68-114.19,20.03c-35.53,13.36-66.51,31.65-92.96,54.89-4.64,4.08-9.05,8.33-13.36,12.65-8.18-7.27-15.43-15.13-21.68-23.63-20.84-27.25-31.25-57.97-31.25-92.16,0-22.44,4.54-45.14,13.62-68.12,9.08-22.97,22.71-45.01,40.87-66.11,18.16-21.1,40.74-40.87,67.72-59.3,23.27-15.89,49.63-29.92,79.07-42.02,4.67-1.95,9.46-3.82,14.29-5.66h-177.9c-9.61,22.44-18.16,45.94-25.64,70.52-5.88,20.84-11.49,44.48-16.83,70.92-5.34,26.45-8.01,53.56-8.01,81.34,0,39,7.75,73.73,23.24,104.18,8.19,16.1,17.96,30.86,29.22,44.35-14.29,16.64-26.39,34.89-36.25,54.78-7.61,15.36-13.38,31.23-17.2,47.55-4.03,16.88-6.04,34.3-6.04,52.22,0,38.47,9.08,74.26,27.25,107.38,18.16,33.12,42.47,61.71,72.92,85.75h-38.46s-.04,0-.06,0c-3.98.57-7.5,2.86-9.92,6.06-11.06,14.64-18.71,30.76-23.01,48.37-2.08,8.52-3.45,17.1-4.14,25.7-.88,11.38-.59,22.84.93,34.41,2.67,20.3,9.08,39.93,19.23,58.9,10.15,18.97,23.51,35.79,40.07,50.49s36.33,26.45,59.3,35.26c22.97,8.82,48.88,13.22,77.73,13.22,32.06,0,61.84-3.47,89.35-10.42,27.51-6.95,51.6-14.85,72.52-23.24,9.83-3.94,19.8-7.48,40.1-20.3v-87.08c-16.03,24.58-33.16,46.48-52.93,65.71-17.1,16.56-37.66,31.65-61.71,45.28-24.04,13.62-50.75,20.43-80.14,20.43-22.44,0-42.07-5.21-58.9-15.63-16.83-10.42-30.72-23.51-41.67-39.27-10.95-15.76-18.97-33.39-24.04-52.89-5.07-19.5-7.08-38.47-6.01-56.9.53-9.43,1.98-18.35,4.27-26.79,2.16-8.07,5.16-15.71,8.95-22.89,7.75-14.69,19.1-25.51,34.06-32.46,19.77-9.08,37.67-13.62,53.69-13.62,20.84,0,38.2,6.81,52.09,20.43,9.91,9.72,19.02,20.89,27.27,33.47,4.89-8.57,7.32-19.58,7.32-33.02,0-10.68-1.07-22.71-3.21-36.06-1.84-11.49-3.87-23.37-6.12-35.63-.35-2-.72-4.01-1.1-6.04-2.67-14.42-5.08-28.98-7.21-43.67-2.14-14.69-3.21-28.98-3.21-42.87,0-10.15.67-19.9,2-29.25.85-5.95,2.29-11.62,4.33-17.03,2.36-6.27,6.07-12.13,11.08-17.11,1.43-1.42,2.88-2.68,4.15-3.43l-14.09,4.52c-1.24.4-2.49.83-3.7,1.3-20.38,7.85-34.6,16.83-42.64,26.95-8.28,10.42-12.42,21.5-12.42,33.26,0,10.68,2.4,21.37,7.21,32.05,4.81,10.68,10.42,21.24,16.83,31.65,6.41,10.42,12.82,20.43,19.23,30.05.63.94,1.25,1.88,1.85,2.8,3.12,4.81,1.73,11.23-3.1,14.32l-.09.06c-12.02,7.75-24.44,13.09-37.26,16.03-12.82,2.94-24.58,4.41-35.26,4.41-29.92,0-55.56-6.68-76.93-20.03-10.94-6.84-20.6-14.5-29.01-23-6.21-6.28-10.79-14.01-13.29-22.49-.01-.04-.03-.09-.04-.13-4.27-14.42-6.41-29.38-6.41-44.88,0-19.23,3.21-39,9.62-59.3,6.41-20.3,16.16-40.07,29.25-59.3,7.99-11.73,17.26-23.21,27.86-34.43,3.91-4.19,8.08-8.32,12.37-12.44,15.34,7.96,31.78,14.72,49.34,20.27,35.53,11.22,73.59,16.83,114.19,16.83s78.67-6.68,114.19-20.03,66.51-31.65,92.96-54.89c4.64-4.08,9.05-8.33,13.36-12.65,8.18,7.27,15.43,15.13,21.68,23.63,20.84,27.25,31.25,57.97,31.25,92.16,0,22.44-4.54,45.14-13.62,68.12-9.08,22.97-22.71,45.01-40.87,66.11-18.16,21.1-40.74,40.87-67.72,59.3-23.27,15.89-49.63,29.92-79.07,42.02-4.67,1.95-9.46,3.82-14.29,5.66h177.9c9.62-22.44,18.16-45.94,25.64-70.52,5.88-20.84,11.49-44.48,16.83-70.92,5.34-26.45,8.01-53.56,8.01-81.34,0-39-7.75-73.73-23.24-104.18-8.19-16.1-17.96-30.86-29.22-44.35,14.29-16.64,26.39-34.89,36.25-54.78,7.61-15.36,13.38-31.23,17.2-47.55,4.03-16.88,6.04-34.3,6.04-52.22,0-38.47-9.08-74.26-27.25-107.38-18.16-33.12-42.47-61.71-72.92-85.75h38.46s.04,0,.06,0c3.98-.57,7.5-2.86,9.92-6.06,11.06-14.64,18.71-30.76,23.01-48.37,2.08-8.52,3.45-17.1,4.14-25.7.88-11.38.59-22.84-.93-34.41-2.67-20.3-9.08-39.93-19.23-58.9-10.15-18.97-23.51-35.79-40.07-50.49-16.56-14.69-36.33-26.45-59.3-35.26-22.97-8.81-48.88-13.22-77.73-13.22h0ZM1609.79,1283.98c-12.27,0-24.14-.81-35.62-2.44-2.7-.38-5.35-.84-8-1.3,13.73-9.88,28.73-19.16,45.04-27.8,36.33-19.23,71.06-31.79,104.18-37.66,19.69-3.49,38.54-5.24,56.54-5.24,12.27,0,24.14.81,35.62,2.44,2.7.38,5.35.84,8,1.3-13.73,9.88-28.73,19.16-45.04,27.8-36.33,19.23-71.06,31.79-104.18,37.66-19.69,3.49-38.54,5.24-56.54,5.24h0Z"/>
  <path class="cls-1" d="M1694.37,96.43c40.31,0,78.63,5.65,113.89,16.78,35.24,11.13,66.41,27.38,92.64,48.31,26.21,20.91,47.28,46.82,62.64,77,15.35,30.17,23.13,65.07,23.13,103.72,0,27.59-2.69,54.89-7.99,81.14-5.31,26.3-10.97,50.13-16.8,70.83-7.37,24.21-15.89,47.69-25.35,69.81h-171.87c3.46-1.35,6.49-2.57,9.3-3.74,29.32-12.05,55.98-26.22,79.25-42.12,26.93-18.39,49.77-38.4,67.91-59.47,18.15-21.09,31.96-43.43,41.04-66.4,9.09-22.98,13.69-46.02,13.69-68.48,0-34.26-10.58-65.47-31.45-92.75-13.38-18.19-31.41-33.79-53.6-46.36-22.18-12.56-47.78-20.96-76.08-24.96-11.47-1.62-23.5-2.45-35.76-2.45-17.97,0-37.05,1.77-56.71,5.26-33.07,5.87-68.22,18.57-104.47,37.77-27.19,14.4-51.12,30.75-71.15,48.65-.5.45-1.01.9-1.47,1.34-7.36,6.63-14.22,13.35-20.39,19.96-10.51,11.11-19.91,22.74-27.96,34.56-13.08,19.22-22.97,39.26-29.38,59.56-6.41,20.3-9.66,40.36-9.66,59.6,0,15.52,2.17,30.71,6.45,45.16l.02.07.02.07c2.53,8.59,7.21,16.51,13.54,22.91,8.42,8.51,18.24,16.3,29.19,23.15,21.43,13.39,47.49,20.19,77.46,20.19,10.71,0,22.65-1.49,35.48-4.43,12.87-2.95,25.52-8.39,37.58-16.16l.09-.06c2.56-1.64,4.33-4.17,4.97-7.14.64-2.97.09-6.01-1.57-8.56-.6-.93-1.22-1.87-1.86-2.81-6.37-9.56-12.84-19.66-19.21-30.02-6.36-10.34-12-20.95-16.77-31.54-4.73-10.5-7.12-21.15-7.12-31.64,0-11.47,4.11-22.45,12.2-32.63,7.89-9.93,22.1-18.89,42.22-26.64,1.1-.42,2.33-.85,3.65-1.28l9.11-2.92c-.06.06-.12.12-.18.18-5.02,4.99-8.82,10.87-11.31,17.47-2.05,5.45-3.53,11.25-4.39,17.24-1.34,9.36-2.01,19.24-2.01,29.39,0,13.87,1.08,28.34,3.22,43.02,2.12,14.61,4.55,29.32,7.22,43.71l.15.82c.32,1.75.64,3.48.94,5.22,2.15,11.75,4.21,23.73,6.11,35.61,2.12,13.24,3.19,25.32,3.19,35.9,0,12.47-2.15,22.91-6.4,31.08-8.01-12.01-16.91-22.85-26.49-32.25-14.02-13.75-31.78-20.72-52.79-20.72-16.1,0-34.3,4.61-54.11,13.72-15.09,7.01-26.71,18.07-34.52,32.9-3.82,7.24-6.86,15.01-9.03,23.1-2.33,8.55-3.78,17.64-4.31,27-1.07,18.45.96,37.7,6.04,57.21,5.08,19.52,13.22,37.42,24.19,53.21,10.98,15.8,25.1,29.1,41.97,39.55,16.91,10.47,36.9,15.78,59.43,15.78,29.42,0,56.55-6.92,80.63-20.56,24-13.6,44.83-28.89,61.91-45.43,17.93-17.45,34.71-38.11,51.23-63.08v83.19c-18.25,11.49-28.22,15.45-37.03,18.95-.82.33-1.63.65-2.45.97-21.96,8.81-46.32,16.62-72.4,23.2-27.3,6.89-57.28,10.39-89.11,10.39-28.59,0-54.62-4.43-77.37-13.16-22.75-8.73-42.6-20.53-59-35.07-16.4-14.54-29.8-31.44-39.85-50.21-10.05-18.77-16.48-38.47-19.12-58.56-1.49-11.35-1.81-22.86-.93-34.19.7-8.63,2.08-17.22,4.12-25.54,4.25-17.42,11.93-33.57,22.83-48,2.38-3.15,5.66-5.16,9.26-5.67h41.27l-2.26-1.78c-30.2-23.85-54.65-52.59-72.67-85.44-18-32.82-27.12-68.79-27.12-106.9,0-17.81,2.02-35.3,6.01-51.99,3.76-16.07,9.52-32,17.12-47.33,15.36-30.99,36.45-58.39,62.67-81.43,26.23-23.05,57.4-41.46,92.65-54.71,35.25-13.25,73.55-19.97,113.84-19.97M1694.37,95.43c-40.6,0-78.67,6.68-114.19,20.03s-66.51,31.65-92.96,54.89c-26.44,23.24-47.41,50.49-62.91,81.74-7.61,15.36-13.38,31.23-17.2,47.55-4.03,16.88-6.04,34.3-6.04,52.22,0,38.47,9.08,74.26,27.25,107.38,18.16,33.12,42.47,61.71,72.92,85.75h-38.46s-.04,0-.06,0c-3.98.57-7.5,2.86-9.92,6.06-11.06,14.64-18.71,30.76-23.01,48.37-2.08,8.52-3.45,17.1-4.14,25.7-.88,11.38-.59,22.84.93,34.41,2.67,20.3,9.08,39.93,19.23,58.9,10.15,18.97,23.51,35.79,40.07,50.49,16.56,14.69,36.33,26.45,59.3,35.26,22.97,8.81,48.88,13.22,77.73,13.22,32.06,0,61.84-3.47,89.35-10.42,27.51-6.95,51.6-14.85,72.52-23.24,9.83-3.94,19.8-7.48,40.1-20.3v-87.08c-16.03,24.57-33.16,46.48-52.93,65.71-17.1,16.56-37.66,31.65-61.71,45.28-24.04,13.62-50.75,20.43-80.14,20.43-22.44,0-42.07-5.21-58.9-15.63-16.83-10.42-30.72-23.51-41.67-39.27-10.95-15.76-18.97-33.39-24.04-52.89-5.07-19.5-7.08-38.47-6.01-56.9.53-9.43,1.98-18.35,4.27-26.79,2.16-8.07,5.16-15.71,8.95-22.89,7.75-14.69,19.1-25.51,34.06-32.46,19.77-9.08,37.67-13.62,53.69-13.62,20.84,0,38.2,6.81,52.09,20.43,9.91,9.72,19.02,20.89,27.27,33.47,4.89-8.57,7.32-19.58,7.32-33.02,0-10.68-1.07-22.71-3.21-36.06-1.84-11.49-3.87-23.37-6.12-35.63-.35-2-.72-4.01-1.1-6.04-2.67-14.42-5.08-28.98-7.21-43.67-2.14-14.69-3.21-28.98-3.21-42.87,0-10.15.67-19.9,2-29.25.85-5.95,2.29-11.62,4.33-17.03,2.36-6.27,6.07-12.13,11.08-17.11,1.43-1.42,2.88-2.68,4.15-3.43l-14.09,4.52c-1.24.4-2.49.83-3.7,1.3-20.38,7.85-34.6,16.83-42.64,26.95-8.28,10.42-12.42,21.5-12.42,33.26,0,10.68,2.4,21.37,7.21,32.05,4.81,10.68,10.42,21.24,16.83,31.65,6.41,10.42,12.82,20.43,19.23,30.05.63.94,1.25,1.88,1.85,2.8,3.12,4.81,1.73,11.23-3.1,14.32l-.09.06c-12.02,7.75-24.44,13.09-37.26,16.03-12.82,2.94-24.58,4.41-35.26,4.41-29.92,0-55.56-6.68-76.93-20.03-10.94-6.84-20.6-14.5-29.01-23-6.21-6.28-10.79-14.01-13.29-22.49-.01-.04-.03-.09-.04-.13-4.27-14.42-6.41-29.38-6.41-44.88,0-19.23,3.21-39,9.62-59.3,6.41-20.3,16.16-40.07,29.25-59.3,7.99-11.73,17.26-23.21,27.86-34.43,6.28-6.73,13.06-13.36,20.33-19.9.48-.45.99-.91,1.5-1.36,20.03-17.9,43.68-34.06,70.92-48.48,36.33-19.23,71.06-31.79,104.18-37.66,19.69-3.49,38.54-5.24,56.54-5.24,12.27,0,24.14.81,35.62,2.44,28.32,4.01,53.56,12.29,75.73,24.84,22.17,12.55,39.93,27.91,53.29,46.08,20.84,27.25,31.25,57.97,31.25,92.16,0,22.44-4.54,45.14-13.62,68.12-9.08,22.97-22.71,45.01-40.87,66.11-18.16,21.1-40.74,40.87-67.72,59.3-23.27,15.89-49.63,29.92-79.07,42.02-4.67,1.95-9.46,3.82-14.29,5.66h177.9c9.62-22.44,18.16-45.95,25.64-70.52,5.88-20.84,11.49-44.48,16.83-70.92,5.34-26.45,8.01-53.56,8.01-81.34,0-39-7.75-73.73-23.24-104.18-15.49-30.45-36.46-56.23-62.91-77.33-26.44-21.1-57.43-37.26-92.96-48.48-35.53-11.22-73.59-16.83-114.19-16.83h0Z"/>
  <path class="cls-1" d="M1758.8,1677.11c28.59,0,54.62,4.43,77.37,13.16,22.75,8.73,42.6,20.53,59,35.07,16.39,14.54,29.8,31.44,39.85,50.21,10.05,18.77,16.48,38.47,19.12,58.56,1.5,11.35,1.81,22.86.93,34.19-.7,8.63-2.08,17.22-4.12,25.54-4.25,17.42-11.93,33.57-22.83,48-2.38,3.15-5.66,5.16-9.25,5.67h-41.28l2.26,1.78c30.2,23.85,54.65,52.59,72.67,85.44,18,32.82,27.12,68.79,27.12,106.9,0,17.81-2.02,35.3-6.01,51.99-3.76,16.07-9.52,32-17.12,47.33-15.36,30.99-36.45,58.39-62.67,81.43-26.23,23.05-57.4,41.46-92.65,54.71-35.25,13.25-73.55,19.97-113.84,19.97s-78.63-5.65-113.89-16.78c-35.24-11.13-66.41-27.38-92.64-48.31-26.21-20.91-47.28-46.82-62.64-77-15.35-30.17-23.13-65.07-23.13-103.72,0-27.59,2.69-54.89,7.99-81.14,5.31-26.29,10.97-50.13,16.8-70.83,7.37-24.21,15.89-47.69,25.35-69.81h171.87c-3.46,1.35-6.49,2.57-9.29,3.74-29.32,12.05-55.99,26.22-79.25,42.12-26.92,18.39-49.77,38.4-67.91,59.47-18.15,21.09-31.96,43.43-41.04,66.4-9.09,22.98-13.69,46.02-13.69,68.48,0,34.26,10.58,65.47,31.45,92.75,13.38,18.19,31.41,33.79,53.6,46.36,22.18,12.56,47.78,20.96,76.08,24.96,11.47,1.62,23.5,2.45,35.76,2.45,17.97,0,37.05-1.77,56.71-5.26,33.07-5.87,68.22-18.57,104.47-37.77,27.19-14.4,51.12-30.75,71.12-48.62.51-.46,1.03-.92,1.5-1.36,7.36-6.63,14.22-13.34,20.39-19.96,10.51-11.12,19.91-22.74,27.96-34.56,13.08-19.22,22.97-39.26,29.38-59.56,6.41-20.3,9.66-40.36,9.66-59.6,0-15.52-2.17-30.71-6.45-45.16l-.02-.05-.02-.08c-2.53-8.59-7.21-16.51-13.54-22.91-8.42-8.52-18.24-16.3-29.19-23.15-21.43-13.39-47.49-20.19-77.46-20.19-10.71,0-22.65,1.49-35.48,4.43-12.87,2.95-25.52,8.39-37.58,16.16l-.09.06c-2.56,1.64-4.33,4.17-4.97,7.14-.64,2.97-.09,6.01,1.57,8.56.6.93,1.22,1.87,1.86,2.81,6.38,9.57,12.84,19.67,19.21,30.02,6.36,10.34,12,20.95,16.77,31.54,4.73,10.5,7.12,21.15,7.12,31.64,0,11.47-4.11,22.45-12.2,32.63-7.89,9.93-22.1,18.89-42.22,26.64-1.1.42-2.33.85-3.64,1.28l-9.11,2.92c.06-.06.12-.12.18-.18,5.02-4.99,8.82-10.87,11.31-17.47,2.05-5.45,3.53-11.25,4.39-17.24,1.34-9.36,2.01-19.24,2.01-29.39,0-13.87-1.08-28.34-3.22-43.02-2.13-14.63-4.56-29.33-7.22-43.71l-.16-.89c-.32-1.72-.63-3.43-.93-5.15-2.15-11.75-4.21-23.74-6.11-35.61-2.12-13.24-3.19-25.32-3.19-35.9,0-12.47,2.15-22.91,6.4-31.08,8,12.01,16.91,22.85,26.49,32.25,14.02,13.75,31.78,20.72,52.79,20.72,16.1,0,34.3-4.61,54.11-13.72,15.09-7.01,26.71-18.07,34.52-32.9,3.82-7.24,6.86-15.01,9.03-23.1,2.33-8.55,3.78-17.64,4.31-27,1.07-18.45-.96-37.7-6.04-57.21-5.08-19.52-13.22-37.43-24.19-53.21-10.98-15.8-25.1-29.1-41.97-39.55-16.91-10.47-36.9-15.78-59.43-15.78-29.42,0-56.55,6.92-80.63,20.56-24,13.6-44.83,28.89-61.91,45.43-17.93,17.45-34.71,38.11-51.23,63.08v-83.19c18.25-11.49,28.22-15.45,37.03-18.95.82-.33,1.63-.65,2.45-.97,21.97-8.81,46.32-16.62,72.4-23.2,27.31-6.89,57.29-10.39,89.11-10.39M1758.8,1676.11c-32.05,0-61.84,3.47-89.35,10.42-27.51,6.95-51.6,14.85-72.52,23.24-9.83,3.94-19.8,7.48-40.1,20.3v87.08c16.03-24.58,33.16-46.48,52.93-65.71,17.1-16.56,37.66-31.65,61.71-45.28,24.04-13.62,50.75-20.43,80.14-20.43,22.44,0,42.07,5.21,58.9,15.63,16.83,10.42,30.72,23.51,41.67,39.27,10.95,15.76,18.97,33.39,24.04,52.89,5.08,19.5,7.08,38.47,6.01,56.9-.53,9.43-1.98,18.35-4.27,26.79-2.16,8.07-5.16,15.71-8.95,22.89-7.75,14.69-19.1,25.51-34.06,32.46-19.77,9.08-37.67,13.62-53.69,13.62-20.84,0-38.2-6.81-52.09-20.43-9.91-9.72-19.02-20.89-27.27-33.47-4.89,8.57-7.32,19.58-7.32,33.02,0,10.68,1.07,22.71,3.21,36.06,1.84,11.49,3.87,23.37,6.12,35.63.35,2,.72,4.01,1.1,6.04,2.67,14.42,5.08,28.98,7.21,43.67,2.14,14.69,3.21,28.98,3.21,42.87,0,10.15-.67,19.9-2,29.25-.85,5.95-2.29,11.62-4.33,17.03-2.36,6.27-6.07,12.13-11.08,17.11-1.43,1.42-2.88,2.68-4.15,3.43l14.09-4.52c1.24-.4,2.49-.83,3.7-1.3,20.38-7.85,34.6-16.83,42.64-26.95,8.28-10.42,12.42-21.5,12.42-33.26,0-10.68-2.4-21.37-7.21-32.05-4.81-10.68-10.42-21.24-16.83-31.65-6.41-10.42-12.82-20.43-19.23-30.05-.63-.94-1.25-1.88-1.85-2.8-3.12-4.81-1.73-11.23,3.1-14.32l.09-.06c12.02-7.75,24.44-13.09,37.26-16.03,12.82-2.94,24.58-4.41,35.26-4.41,29.92,0,55.56,6.68,76.93,20.03,10.94,6.84,20.6,14.5,29.01,23,6.21,6.28,10.79,14.01,13.29,22.49.01.04.03.09.04.13,4.27,14.42,6.41,29.38,6.41,44.88,0,19.23-3.21,39-9.62,59.3-6.41,20.3-16.16,40.07-29.25,59.3-7.99,11.73-17.26,23.21-27.86,34.43-6.28,6.73-13.06,13.36-20.33,19.9-.48.45-.99.91-1.5,1.36-20.03,17.9-43.67,34.06-70.92,48.48-36.33,19.23-71.06,31.79-104.18,37.66-19.69,3.49-38.54,5.24-56.53,5.24-12.27,0-24.14-.81-35.62-2.44-28.31-4.01-53.56-12.29-75.73-24.84-22.17-12.55-39.94-27.91-53.29-46.08-20.84-27.25-31.25-57.97-31.25-92.16,0-22.44,4.54-45.14,13.62-68.12,9.08-22.97,22.71-45.01,40.87-66.11,18.16-21.1,40.74-40.87,67.72-59.3,23.27-15.89,49.63-29.92,79.07-42.02,4.67-1.95,9.46-3.82,14.29-5.66h-177.9c-9.62,22.44-18.16,45.95-25.64,70.52-5.88,20.84-11.49,44.48-16.83,70.92-5.34,26.45-8.01,53.56-8.01,81.34,0,39,7.75,73.73,23.24,104.18,15.49,30.45,36.46,56.23,62.91,77.33,26.44,21.1,57.43,37.26,92.96,48.48,35.53,11.22,73.59,16.83,114.19,16.83s78.67-6.68,114.2-20.03c35.53-13.36,66.51-31.65,92.96-54.89,26.44-23.24,47.41-50.49,62.91-81.74,7.61-15.36,13.38-31.23,17.2-47.55,4.03-16.88,6.04-34.3,6.04-52.22,0-38.47-9.08-74.26-27.25-107.38-18.16-33.12-42.47-61.71-72.92-85.75h38.46s.04,0,.06,0c3.98-.57,7.5-2.86,9.92-6.06,11.06-14.64,18.71-30.76,23.01-48.37,2.08-8.52,3.45-17.1,4.14-25.7.88-11.38.59-22.84-.93-34.41-2.67-20.3-9.08-39.93-19.23-58.9-10.15-18.97-23.51-35.79-40.07-50.49-16.56-14.69-36.33-26.45-59.3-35.26-22.97-8.81-48.88-13.22-77.73-13.22h0Z"/>
</svg>