<?xml version="1.0" encoding="UTF-8"?>
<svg id="Layer_1" data-name="Layer 1" xmlns="http://www.w3.org/2000/svg" viewBox="0 0 1312.62 697.2">
  <defs>
    <style>
      .cls-1 {
        fill: #fff;
      }
    </style>
  </defs>
  <g>
    <g>
      <path class="cls-1" d="M628.76,574.66c0,1.73.04,3.64.13,5.72.09,2.08.35,3.94.78,5.59.43,1.65,1.17,3.03,2.21,4.16,1.04,1.13,2.51,1.69,4.42,1.69v3.12h-11.18c-5.03,0-9.36-1.65-13-4.94-3.64-3.29-5.81-7.36-6.5-12.22v-12.48c-7.8,9.88-17.07,17.77-27.82,23.66-10.75,5.89-22.36,8.84-34.84,8.84-11.44,0-22.23-2.51-32.37-7.54-10.14-5.03-18.98-11.83-26.52-20.41-7.54-8.58-13.48-18.63-17.81-30.16-4.33-11.52-6.5-23.87-6.5-37.05s1.82-25.52,5.46-37.05c3.64-11.52,8.88-21.58,15.73-30.16,6.85-8.58,15.21-15.38,25.09-20.41,9.88-5.03,21.14-7.54,33.8-7.54,9.01,0,17.81.87,26.39,2.6,8.58,1.73,16.25,3.55,23.01,5.46,7.97,2.43,15.6,5.2,22.88,8.32v57.72c-4.33-11.44-9.49-21.54-15.47-30.29-5.98-8.75-12.39-16.07-19.24-21.97-6.85-5.89-14-10.31-21.45-13.26-7.45-2.95-14.82-4.42-22.1-4.42-11.09,0-21.06,3.38-29.9,10.14-5.89,4.33-10.88,10.1-14.95,17.29-4.07,7.19-6.76,15.38-8.06,24.57-1.3,9.19-1,19.15.91,29.9,1.91,10.75,5.98,22.01,12.22,33.8,4.68,8.84,9.92,16.51,15.73,23.01,5.81,6.5,11.83,11.87,18.07,16.12,6.24,4.25,12.65,7.41,19.24,9.49,6.58,2.08,13,3.12,19.24,3.12,5.03,0,9.88-.69,14.56-2.08,4.68-1.38,8.84-3.42,12.48-6.11,3.64-2.69,6.54-6.15,8.71-10.4,2.17-4.25,3.25-9.23,3.25-14.95v-30.94c0-1.91-.74-3.38-2.21-4.42-1.47-1.04-3.08-1.21-4.81-.52-2.43,1.04-5.2,2.6-8.32,4.68-3.12,2.08-6.37,4.16-9.75,6.24-3.38,2.08-6.8,3.9-10.27,5.46-3.47,1.56-6.93,2.34-10.4,2.34-3.81,0-7.41-1.34-10.79-4.03-3.38-2.68-6.37-7.5-8.97-14.43l2.08-1.56c2.6,1.39,5.41,2.3,8.45,2.73,3.03.44,6.2.65,9.49.65,4.51,0,9.14-.35,13.91-1.04,4.76-.69,9.49-1.47,14.17-2.34,4.68-.87,9.19-1.65,13.52-2.34,4.33-.69,8.23-1.04,11.7-1.04,4.68,0,8.45.91,11.31,2.73,2.86,1.82,4.29,5.24,4.29,10.27v56.68Z"/>
      <path class="cls-1" d="M675.04,579.6c3.12,1.91,6.54,3.29,10.27,4.16,3.73.87,7.58,1.3,11.57,1.3,4.68,0,9.57-.48,14.69-1.43,5.11-.95,10.18-2.25,15.21-3.9,5.02-1.65,9.96-3.51,14.82-5.59,4.85-2.08,9.45-4.16,13.78-6.24,10.05-5.02,20.02-10.75,29.9-17.16v30.94c-5.03,2.43-10.66,4.59-16.9,6.5-5.55,1.73-12.13,3.29-19.76,4.68-7.63,1.39-16.29,2.08-26,2.08-11.61,0-22.1-1.12-31.46-3.38-9.36-2.25-17.29-5.63-23.79-10.14-6.5-4.51-11.53-10.18-15.08-17.03-3.55-6.85-5.33-14.95-5.33-24.31,0-5.37.61-10.23,1.82-14.56,1.21-4.33,2.81-8.23,4.81-11.7,1.99-3.47,4.25-6.5,6.76-9.1,2.51-2.6,5.16-4.85,7.93-6.76-5.2-4.51-9.36-9.88-12.48-16.12-3.12-6.24-4.68-13-4.68-20.28s1.6-13.69,4.81-19.76c3.21-6.06,7.84-11.4,13.91-15.99,6.06-4.59,13.39-8.19,21.97-10.79,8.58-2.6,18.15-3.9,28.73-3.9,8.84,0,16.77.69,23.79,2.08,7.02,1.39,13.04,2.86,18.07,4.42,5.89,2.08,11.09,4.33,15.6,6.76v30.94c-9.01-6.41-18.11-12.22-27.3-17.42-7.97-4.33-16.68-8.27-26.13-11.83-9.45-3.55-18.5-5.33-27.17-5.33-3.81,0-7.45.48-10.92,1.43-3.47.95-6.68,2.47-9.62,4.55-6.59,4.68-9.58,11.18-8.97,19.5.61,8.32,4.46,17.25,11.57,26.78,3.29,4.33,6.8,8.02,10.53,11.05,3.72,3.03,7.54,5.46,11.44,7.28,3.9,1.82,7.8,3.12,11.7,3.9,3.9.78,7.58,1.17,11.05,1.17,5.02,0,9.45-.69,13.26-2.08,3.81-1.39,6.5-3.03,8.06-4.94.52.35.69.44.52.26-.17-.17,0-.09.52.26-1.21,2.08-2.86,4.33-4.94,6.76-2.08,2.43-4.77,4.68-8.06,6.76-3.29,2.08-7.15,3.86-11.57,5.33-4.42,1.48-9.49,2.38-15.21,2.73h-.52c-7.8,0-14.56,1.34-20.28,4.03-5.72,2.69-10.44,6.11-14.17,10.27-3.73,4.16-6.41,8.84-8.06,14.04-1.65,5.2-2.34,10.31-2.08,15.34.26,5.03,1.51,9.71,3.77,14.04,2.25,4.33,5.46,7.8,9.62,10.4Z"/>
      <path class="cls-1" d="M924.38,411.12h18.72v3.12c-1.91,0-3.38.52-4.42,1.56-1.04,1.04-1.78,2.43-2.21,4.16-.44,1.73-.69,3.55-.78,5.46-.09,1.91-.13,3.81-.13,5.72v163.8h-4.68c-4.85,0-9.79-2.47-14.82-7.41-5.03-4.94-10.05-11.4-15.08-19.37-5.03-7.97-10.1-17.12-15.21-27.43-5.11-10.31-10.27-20.8-15.47-31.46-5.2-10.66-10.36-21.14-15.47-31.46-5.11-10.31-10.23-19.46-15.34-27.43-5.11-7.97-10.23-14.43-15.34-19.37-5.11-4.94-10.18-7.41-15.21-7.41v151.32c0,1.73.04,3.6.13,5.59.09,1.99.35,3.81.78,5.46.43,1.65,1.17,3.03,2.21,4.16,1.04,1.13,2.51,1.69,4.42,1.69v3.12h-18.72v-3.12c1.91,0,3.38-.56,4.42-1.69,1.04-1.13,1.78-2.51,2.21-4.16.43-1.65.69-3.51.78-5.59.09-2.08.13-3.99.13-5.72v-143.52c0-1.91-.04-3.81-.13-5.72-.09-1.91-.35-3.73-.78-5.46-.43-1.73-1.17-3.12-2.21-4.16-1.04-1.04-2.51-1.56-4.42-1.56v-3.12h33.28c5.55,0,10.96,2.04,16.25,6.11,5.29,4.07,10.4,9.45,15.34,16.12,4.94,6.68,9.7,14.3,14.3,22.88,4.59,8.58,9.01,17.33,13.26,26.26,4.25,8.93,8.32,17.68,12.22,26.26,3.9,8.58,7.62,16.21,11.18,22.88,3.55,6.67,6.85,12.05,9.88,16.12,3.03,4.08,5.94,6.11,8.71,6.11v-122.72c0-1.91-.04-3.81-.13-5.72-.09-1.91-.39-3.73-.91-5.46-.52-1.73-1.3-3.12-2.34-4.16-1.04-1.04-2.51-1.56-4.42-1.56v-3.12Z"/>
      <path class="cls-1" d="M958.18,411.12h38.22v3.12c-1.91,0-3.38.52-4.42,1.56-1.04,1.04-1.78,2.43-2.21,4.16-.43,1.73-.69,3.55-.78,5.46-.09,1.91-.13,3.81-.13,5.72v143.52c0,1.73.04,3.64.13,5.72.09,2.08.35,3.94.78,5.59.43,1.65,1.17,3.03,2.21,4.16,1.04,1.13,2.51,1.69,4.42,1.69v3.12h-38.22v-3.12c1.91,0,3.38-.56,4.42-1.69,1.04-1.13,1.78-2.51,2.21-4.16.43-1.65.69-3.47.78-5.46.09-1.99.13-3.86.13-5.59v-143.78c0-1.91-.04-3.81-.13-5.72-.09-1.91-.35-3.73-.78-5.46-.43-1.73-1.17-3.12-2.21-4.16-1.04-1.04-2.51-1.56-4.42-1.56v-3.12Z"/>
      <path class="cls-1" d="M1137.31,411.12h20.02v3.12c-1.91,0-3.38.52-4.42,1.56-1.04,1.04-1.78,2.43-2.21,4.16-.43,1.73-.69,3.55-.78,5.46-.09,1.91-.13,3.81-.13,5.72v106.08c0,6.76-1.17,13.74-3.51,20.93-2.34,7.19-6.02,13.74-11.05,19.63-5.03,5.89-11.57,10.75-19.63,14.56-8.06,3.81-17.72,5.72-28.99,5.72-12.13,0-22.58-2.04-31.33-6.11-8.75-4.07-15.9-9.14-21.45-15.21-5.55-6.06-9.62-12.65-12.22-19.76-2.6-7.11-3.9-13.78-3.9-20.02v-105.82c0-1.91-.04-3.81-.13-5.72-.09-1.91-.35-3.73-.78-5.46-.43-1.73-1.17-3.12-2.21-4.16-1.04-1.04-2.51-1.56-4.42-1.56v-3.12c6.41-.35,12.13.35,17.16,2.08,2.08.69,4.16,1.73,6.24,3.12,2.08,1.39,3.94,3.12,5.59,5.2,1.65,2.08,2.95,4.59,3.9,7.54.95,2.95,1.43,6.41,1.43,10.4,0,1.73.04,4.03.13,6.89.09,2.86.13,5.07.13,6.63,0,5.55-.3,11.87-.91,18.98-.61,7.11-1.34,14.39-2.21,21.84-.87,7.45-1.86,14.69-2.99,21.71-1.13,7.02-2.12,13.3-2.99,18.85-1.21,6.76-1.52,13.61-.91,20.54.61,6.93,2.77,13.17,6.5,18.72,3.73,5.55,9.49,10.05,17.29,13.52,7.8,3.47,18.37,5.2,31.72,5.2,10.57,0,19.37-1.95,26.39-5.85,7.02-3.9,12.65-8.71,16.9-14.43,4.25-5.72,7.24-11.92,8.97-18.59,1.73-6.67,2.6-12.78,2.6-18.33l-.26-104c0-1.91-.04-3.81-.13-5.72-.09-1.91-.35-3.73-.78-5.46-.43-1.73-1.17-3.12-2.21-4.16-1.04-1.04-2.51-1.56-4.42-1.56v-3.12Z"/>
      <path class="cls-1" d="M1266.27,500.04c4.51,1.91,9.14,4.12,13.91,6.63,4.76,2.51,9.1,5.63,13,9.36,3.9,3.73,7.06,8.15,9.49,13.26,2.42,5.11,3.64,11.31,3.64,18.59s-1.78,13.43-5.33,19.5c-3.55,6.07-8.36,11.35-14.43,15.86-6.07,4.51-13,8.06-20.8,10.66-7.8,2.6-16.03,3.9-24.7,3.9-11.27,0-20.97-.91-29.12-2.73-8.15-1.82-14.99-3.77-20.54-5.85-6.41-2.6-11.87-5.46-16.38-8.58v-47.32c3.29,8.84,7.8,16.9,13.52,24.18,5.72,7.28,12.09,13.52,19.11,18.72,7.02,5.2,14.39,9.19,22.1,11.96,7.71,2.77,15.04,4.16,21.97,4.16,5.55,0,10.79-1,15.73-2.99,4.94-1.99,9.14-5.07,12.61-9.23,3.64-4.51,6.02-9.36,7.15-14.56,1.13-5.2,1-10.36-.39-15.47-1.39-5.11-4.16-9.92-8.32-14.43-4.16-4.51-9.62-8.15-16.38-10.92-2.6-1.04-6.2-2.47-10.79-4.29-4.59-1.82-9.67-3.86-15.21-6.11-5.55-2.25-11.31-4.64-17.29-7.15-5.98-2.51-11.66-5.07-17.03-7.67-10.4-4.85-18.11-10.96-23.14-18.33-5.03-7.36-7.28-16.77-6.76-28.21.35-6.76,1.82-12.91,4.42-18.46,2.6-5.55,6.37-10.31,11.31-14.3,4.94-3.99,11.13-7.11,18.59-9.36,7.45-2.25,16.12-3.38,26-3.38,8.15,0,15.95.82,23.4,2.47,7.45,1.65,14.13,3.51,20.02,5.59,6.76,2.43,13.17,5.11,19.24,8.06v45.5c-6.42-10.75-12.78-19.84-19.11-27.3-6.33-7.45-12.52-13.43-18.59-17.94-6.07-4.51-11.87-7.76-17.42-9.75-5.55-1.99-10.83-2.99-15.86-2.99-4.68,0-9.06.78-13.13,2.34-4.07,1.56-7.67,3.68-10.79,6.37-3.12,2.69-5.77,5.76-7.93,9.23-2.17,3.47-3.68,7.11-4.55,10.92-1.21,5.72-1,10.79.65,15.21,1.65,4.42,4.11,8.28,7.41,11.57,3.29,3.29,6.93,6.02,10.92,8.19,3.98,2.17,7.54,3.86,10.66,5.07,3.29,1.21,7.15,2.73,11.57,4.55,4.42,1.82,8.88,3.64,13.39,5.46,4.51,1.82,8.93,3.64,13.26,5.46,4.33,1.82,7.97,3.34,10.92,4.55Z"/>
    </g>
    <path class="cls-1" d="M392.85,346.64c-12.55-22.89-29.35-42.64-50.39-59.25h26.62c2.55-.36,4.91-1.65,6.48-3.7,7.84-10.25,13.26-21.55,16.28-33.92,1.44-5.89,2.38-11.81,2.86-17.76.61-7.86.41-15.78-.65-23.78-1.85-14.03-6.28-27.6-13.29-40.7-7.01-13.11-16.24-24.74-27.69-34.89-11.44-10.15-25.1-18.27-40.98-24.37-15.87-6.09-33.78-9.14-53.72-9.14-22.15,0-42.73,2.4-61.75,7.2-19.01,4.8-35.66,10.26-50.12,16.06-6.79,2.73-13.69,5.17-27.71,14.03v60.18c11.08-16.98,22.91-32.12,36.57-45.41,11.81-11.44,26.03-21.87,42.64-31.29,16.61-9.41,35.07-14.12,55.38-14.12,15.51,0,29.07,3.6,40.7,10.8,11.63,7.2,21.23,16.24,28.8,27.14,7.57,10.89,13.11,23.07,16.61,36.55,3.51,13.48,4.89,26.58,4.15,39.32-.37,6.52-1.37,12.68-2.95,18.51-1.5,5.57-3.56,10.85-6.18,15.82-5.35,10.15-13.2,17.63-23.53,22.43-13.66,6.28-26.03,9.41-37.1,9.41-14.4,0-26.4-4.71-36-14.12-6.85-6.72-13.14-14.44-18.85-23.13-3.38,5.93-5.06,13.53-5.06,22.82,0,7.38.74,15.69,2.22,24.92,1.27,7.94,2.68,16.15,4.23,24.62.24,1.38.5,2.77.76,4.17,1.85,9.97,3.51,20.03,4.98,30.18,1.48,10.15,2.22,20.03,2.22,29.63,0,7.01-.46,13.75-1.38,20.21-.59,4.11-1.59,8.03-2.99,11.77-1.63,4.33-4.19,8.38-7.66,11.82-.99.98-1.99,1.85-2.87,2.37l9.74-3.12c.86-.28,1.72-.57,2.56-.9,14.09-5.42,23.91-11.63,29.47-18.62,5.72-7.2,8.58-14.86,8.58-22.98,0-7.38-1.66-14.77-4.98-22.15-3.32-7.38-7.2-14.68-11.63-21.87-4.43-7.2-8.86-14.12-13.29-20.77-.44-.65-.86-1.3-1.28-1.93-2.16-3.33-1.2-7.76,2.14-9.9l.06-.04c8.31-5.35,16.89-9.04,25.75-11.08,8.86-2.03,16.98-3.05,24.37-3.05,20.67,0,38.4,4.61,53.16,13.84,7.23,4.52,13.65,9.56,19.28,15.13,4.6,4.55,8.13,10.11,9.95,16.31,0,.03.02.06.03.09,2.95,9.97,4.43,20.31,4.43,31.01,0,13.29-2.22,26.95-6.65,40.98-4.43,14.03-11.17,27.69-20.21,40.98-5.52,8.1-11.92,16.04-19.25,23.79-4.34,4.65-9.03,9.23-14.05,13.75-.33.31-.68.63-1.03.94-13.84,12.37-30.18,23.54-49.01,33.5-25.1,13.29-49.1,21.97-71.99,26.03-22.89,4.06-44.12,4.71-63.68,1.94-19.57-2.77-37.01-8.49-52.33-17.17-15.32-8.68-27.6-19.29-36.83-31.84-14.4-18.83-21.6-40.06-21.6-63.68,0-15.51,3.14-31.2,9.41-47.07,6.28-15.88,15.69-31.1,28.24-45.69,12.55-14.58,28.15-28.24,46.79-40.98,16.08-10.98,34.3-20.67,54.64-29.04,3.23-1.35,6.53-2.64,9.88-3.91H41.2c-6.64,15.51-12.55,31.75-17.72,48.73-4.06,14.4-7.94,30.73-11.63,49.01-3.69,18.27-5.54,37.01-5.54,56.21,0,26.95,5.35,50.95,16.06,71.99,10.71,21.04,25.2,38.86,43.47,53.44,18.27,14.58,39.69,25.75,64.24,33.5,24.55,7.75,50.86,11.63,78.91,11.63s54.36-4.61,78.91-13.84c24.55-9.23,45.96-21.87,64.24-37.93,18.27-16.06,32.76-34.89,43.47-56.49,5.26-10.61,9.25-21.58,11.89-32.86,2.79-11.67,4.17-23.7,4.17-36.09,0-26.58-6.28-51.32-18.83-74.21Z"/>
  </g>
  <g>
    <path class="cls-1" d="M473.02,272.13h5.3l15.85,33.51h-5.39l-2.16-4.81h-10.02c-6.01,0-9.23,1.9-9.98,3.27l-.84,1.55h-5.21l14.26-29.45-1.81-4.06ZM484.46,295.98l-7.2-13.91-7.29,15.76c1.19-1.02,3.89-1.85,8.39-1.85h6.09Z"/>
    <path class="cls-1" d="M523.76,280.57c-2.39-2.47-5.87-3.97-9.63-3.97-7.33,0-12.98,5.26-12.98,12.67s6.14,12.32,13.03,12.32c4.28,0,8.08-1.99,10.47-5.17l2.96,4.02c-3.31,3.71-8.17,5.96-13.47,5.96-9.98,0-17.71-7.77-17.71-17.71s8.3-16.96,17.75-16.96c4.95,0,9.45,1.99,12.67,5.21l-3.09,3.62Z"/>
    <path class="cls-1" d="M547.56,277.57v28.08h-4.68v-28.08h-11.75v-4.86h28.04v4.86h-11.61Z"/>
    <path class="cls-1" d="M477.44,330.56v28.08h-4.68v-28.08h-11.75v-4.86h28.04v4.86h-11.61Z"/>
    <path class="cls-1" d="M510.73,359.39c-9.98,0-17.71-7.77-17.71-17.71s8.3-16.96,17.75-16.96,17.71,7.64,17.71,17.49-8.21,17.18-17.75,17.18ZM510.73,329.58c-7.33,0-12.98,5.26-12.98,12.67s6.14,12.32,13.03,12.32,12.94-5.48,12.94-12.63-5.96-12.36-12.98-12.36Z"/>
    <path class="cls-1" d="M547.96,358.64v-32.94h4.73v32.94h-4.73Z"/>
    <path class="cls-1" d="M579.27,349.45l-11.17-13.47v22.65h-4.72v-28.3l-3.84-4.64h6.23l13.47,16.16,13.64-16.16h6.22l-3.84,4.64v28.3h-4.72v-22.65l-11.26,13.47Z"/>
    <path class="cls-1" d="M605.94,358.64v-32.94h16.91c5.83,0,9.63,3.53,9.63,9.41s-3.8,9.54-9.63,9.54h-5.83c-2.12,0-4.28.26-6.27,1.32v12.67h-4.81ZM622.85,339.78c3.14,0,4.86-1.5,4.86-4.68s-1.68-4.59-4.86-4.59h-12.1v10.6c1.99-1.15,4.11-1.32,6.27-1.32h5.83Z"/>
    <path class="cls-1" d="M643.65,325.12h5.3l15.85,33.51h-5.39l-2.16-4.81h-10.02c-6.01,0-9.23,1.9-9.98,3.27l-.84,1.55h-5.21l14.26-29.45-1.81-4.06ZM655.09,348.97l-7.2-13.91-7.29,15.76c1.19-1.02,3.89-1.85,8.39-1.85h6.09Z"/>
    <path class="cls-1" d="M694.39,333.56c-2.38-2.47-5.87-3.97-9.63-3.97-7.33,0-12.98,5.26-12.98,12.67s6.14,12.32,13.03,12.32c4.28,0,8.08-1.99,10.46-5.17l2.96,4.02c-3.31,3.71-8.17,5.96-13.47,5.96-9.98,0-17.71-7.77-17.71-17.71s8.3-16.96,17.75-16.96c4.94,0,9.45,1.99,12.67,5.21l-3.09,3.62Z"/>
    <path class="cls-1" d="M718.19,330.56v28.08h-4.68v-28.08h-11.75v-4.86h28.04v4.86h-11.61Z"/>
  </g>
</svg>