<?xml version="1.0" encoding="UTF-8"?>
<svg id="Layer_1" data-name="Layer 1" xmlns="http://www.w3.org/2000/svg" viewBox="0 0 667.06 697.2">
  <defs>
    <style>
      .cls-1 {
        fill: #fff;
      }
    </style>
  </defs>
  <path class="cls-1" d="M517.38,346.64c-12.55-22.89-29.35-42.64-50.39-59.25h26.62c2.55-.36,4.91-1.65,6.48-3.7,7.84-10.25,13.26-21.55,16.28-33.92,1.44-5.89,2.38-11.81,2.86-17.76.61-7.86.41-15.78-.65-23.78-1.85-14.03-6.28-27.6-13.29-40.7-7.01-13.11-16.24-24.74-27.69-34.89-11.44-10.15-25.1-18.27-40.98-24.37-15.87-6.09-33.78-9.14-53.72-9.14-22.15,0-42.73,2.4-61.75,7.2-19.01,4.8-35.66,10.26-50.12,16.06-6.79,2.73-13.69,5.17-27.71,14.03v60.18c11.08-16.98,22.91-32.12,36.57-45.41,11.81-11.44,26.03-21.87,42.64-31.29,16.61-9.41,35.07-14.12,55.38-14.12,15.51,0,29.07,3.6,40.7,10.8,11.63,7.2,21.23,16.24,28.8,27.14,7.57,10.89,13.11,23.07,16.61,36.55,3.51,13.48,4.89,26.58,4.15,39.32-.37,6.52-1.37,12.68-2.95,18.51-1.5,5.57-3.56,10.85-6.18,15.82-5.35,10.15-13.2,17.63-23.53,22.43-13.66,6.28-26.03,9.41-37.1,9.41-14.4,0-26.4-4.71-36-14.12-6.85-6.72-13.14-14.44-18.85-23.13-3.38,5.93-5.06,13.53-5.06,22.82,0,7.38.74,15.69,2.22,24.92,1.27,7.94,2.68,16.15,4.23,24.62.24,1.38.5,2.77.76,4.17,1.85,9.97,3.51,20.03,4.98,30.18,1.48,10.15,2.22,20.03,2.22,29.63,0,7.01-.46,13.75-1.38,20.21-.59,4.11-1.59,8.03-2.99,11.77-1.63,4.33-4.19,8.38-7.66,11.82-.99.98-1.99,1.85-2.87,2.37l9.74-3.12c.86-.28,1.72-.57,2.56-.9,14.09-5.42,23.91-11.63,29.47-18.62,5.72-7.2,8.58-14.86,8.58-22.98,0-7.38-1.66-14.77-4.98-22.15-3.32-7.38-7.2-14.68-11.63-21.87-4.43-7.2-8.86-14.12-13.29-20.77-.44-.65-.86-1.3-1.28-1.93-2.16-3.33-1.2-7.76,2.14-9.9l.06-.04c8.31-5.35,16.89-9.04,25.75-11.08,8.86-2.03,16.98-3.05,24.37-3.05,20.67,0,38.4,4.61,53.16,13.84,7.23,4.52,13.65,9.56,19.28,15.13,4.6,4.55,8.13,10.11,9.95,16.31,0,.03.02.06.03.09,2.95,9.97,4.43,20.31,4.43,31.01,0,13.29-2.22,26.95-6.65,40.98-4.43,14.03-11.17,27.69-20.21,40.98-5.52,8.1-11.92,16.04-19.25,23.79-4.34,4.65-9.03,9.23-14.05,13.75-.33.31-.68.63-1.03.94-13.84,12.37-30.18,23.54-49.01,33.5-25.1,13.29-49.1,21.97-71.99,26.03-22.89,4.06-44.12,4.71-63.68,1.94-19.57-2.77-37.01-8.49-52.33-17.17-15.32-8.68-27.6-19.29-36.83-31.84-14.4-18.83-21.6-40.06-21.6-63.68,0-15.51,3.14-31.2,9.41-47.07,6.28-15.88,15.69-31.1,28.24-45.69,12.55-14.58,28.15-28.24,46.79-40.98,16.08-10.98,34.3-20.67,54.64-29.04,3.23-1.35,6.53-2.64,9.88-3.91h-122.94c-6.64,15.51-12.55,31.75-17.72,48.73-4.06,14.4-7.94,30.73-11.63,49.01-3.69,18.27-5.54,37.01-5.54,56.21,0,26.95,5.35,50.95,16.06,71.99,10.71,21.04,25.2,38.86,43.47,53.44,18.27,14.58,39.69,25.75,64.24,33.5,24.55,7.75,50.86,11.63,78.91,11.63s54.36-4.61,78.91-13.84c24.55-9.23,45.96-21.87,64.24-37.93,18.27-16.06,32.76-34.89,43.47-56.49,5.26-10.61,9.25-21.58,11.89-32.86,2.79-11.67,4.17-23.7,4.17-36.09,0-26.58-6.28-51.32-18.83-74.21Z"/>
</svg>